<!DOCTYPE svg PUBLIC "-//W3C//DTD SVG 20010904//EN" "http://www.w3.org/TR/2001/REC-SVG-20010904/DTD/svg10.dtd">
<svg version="1.0" xmlns="http://www.w3.org/2000/svg" width="400px" height="400px" viewBox="0 0 4000 4000" preserveAspectRatio="xMidYMid meet">
<g id="layer101" fill="#231f20" stroke="none">
 <path d="M3982 3337 c2 -486 0 -655 -8 -631 -34 99 -130 190 -236 225 -63 21 -91 24 -208 23 -74 0 -155 -6 -180 -13 -101 -27 -180 -82 -234 -162 l-33 -50 -13 32 c-20 47 -100 122 -163 152 -99 47 -250 59 -397 33 -100 -18 -164 -50 -228 -113 -32 -33 -54 -48 -57 -41 -3 7 -6 47 -7 88 -3 74 -3 73 -8 -27 -4 -79 -2 -99 7 -91 7 6 6 -4 -4 -23 -21 -44 -25 -48 -23 -24 1 11 2 71 1 133 l-1 113 -152 -3 -153 -3 -5 -268 c-5 -268 -5 -269 -29 -288 -29 -23 -79 -25 -110 -3 -46 32 -51 66 -51 324 l0 240 -155 0 -155 0 0 -265 0 -266 -25 -24 c-18 -19 -34 -25 -62 -24 l-38 2 44 7 c72 11 71 10 69 304 l-2 261 -6 -268 c-6 -300 -3 -291 -77 -284 -30 3 -41 1 -36 -7 3 -6 -4 -2 -16 10 -34 32 -41 81 -41 327 l0 227 -155 0 -155 0 0 -57 0 -57 -33 30 c-72 67 -115 74 -519 81 l-328 5 0 -422 0 -421 348 3 c306 3 352 5 386 21 59 26 104 64 126 105 l19 37 1 -72 0 -73 145 0 145 0 0 51 0 51 39 -33 c22 -19 40 -38 40 -43 1 -5 -11 1 -27 15 l-27 24 25 -29 c38 -44 119 -76 200 -79 39 -1 71 0 73 3 1 3 18 2 37 -1 l35 -6 -32 -2 -33 -1 0 -145 0 -145 29 0 30 0 3 151 c2 83 -1 153 -6 156 -5 4 -57 7 -115 7 -78 2 -117 7 -149 20 -24 10 -41 20 -39 22 2 3 19 -2 38 -10 54 -23 148 -30 214 -16 49 10 66 20 107 61 27 27 51 49 53 49 8 0 45 -39 45 -47 0 -3 -11 4 -24 16 l-24 23 -36 -40 c-20 -22 -51 -47 -69 -56 -21 -10 -26 -16 -14 -16 10 0 42 22 71 50 53 50 53 50 71 30 26 -29 106 -80 124 -80 9 0 -2 9 -24 20 -22 11 -31 17 -20 14 109 -36 154 -40 236 -23 87 19 179 128 179 212 0 30 16 26 32 -8 8 -19 11 -32 7 -29 -5 3 -9 0 -9 -7 0 -21 134 -144 183 -167 26 -12 52 -22 59 -21 7 0 -5 7 -27 16 -65 26 -164 104 -187 148 -6 11 9 -1 33 -27 62 -67 146 -114 228 -129 100 -17 299 -7 375 20 68 24 88 22 24 -2 -83 -32 -149 -40 -292 -35 -96 3 -128 1 -101 -5 22 -4 101 -7 175 -4 105 3 148 8 193 25 68 25 138 78 180 138 l30 43 36 -45 c36 -44 136 -124 155 -124 5 0 -12 14 -38 31 -56 37 -133 115 -142 142 -5 16 -11 11 -39 -31 -32 -47 -115 -123 -115 -105 0 5 14 17 30 26 31 18 110 125 110 149 0 7 8 -3 17 -22 24 -49 121 -142 174 -167 66 -31 139 -43 257 -43 183 0 279 34 364 129 48 53 94 146 77 157 -9 5 -88 15 -239 30 -53 6 -55 5 -67 -23 -31 -69 -139 -95 -208 -50 -19 12 -35 25 -35 29 0 4 16 -4 36 -17 54 -37 118 -35 167 6 20 17 37 38 37 47 -1 12 -5 9 -15 -9 -46 -85 -183 -77 -232 13 -22 40 -26 199 -5 220 6 6 12 19 12 28 0 8 -8 2 -17 -15 -24 -43 -24 -188 0 -232 10 -18 14 -33 9 -33 -16 0 -33 54 -39 120 -9 107 22 181 89 214 80 41 185 -2 217 -87 9 -24 15 -28 39 -23 28 6 222 26 250 26 8 0 13 -2 11 -5 -3 -2 -61 -10 -130 -16 -68 -7 -133 -16 -144 -20 -14 -6 -10 -7 15 -4 78 11 253 26 257 22 2 -3 4 -592 3 -1311 0 -879 3 -1306 10 -1306 7 0 10 650 10 2000 0 1378 -4 2000 -11 2000 -7 0 -9 -209 -7 -663z m-3447 -577 c32 0 71 -41 71 -74 -1 -52 -38 -68 -170 -74 l-116 -5 0 79 0 79 97 -2 c54 -1 107 -2 118 -3z m2195 -41 c34 -19 88 -95 76 -106 -3 -3 -13 12 -23 33 -10 20 -31 47 -46 58 -34 25 -110 30 -149 10 -16 -8 -28 -11 -28 -7 0 15 44 31 89 32 27 1 57 -7 81 -20z m3 -22 c15 -10 33 -32 40 -50 23 -55 31 -57 144 -44 57 6 104 9 107 6 2 -2 6 -43 7 -92 l4 -87 -45 0 c-25 0 -61 4 -80 9 -51 13 -120 21 -95 11 33 -13 138 -30 186 -30 l44 0 0 105 c0 99 -1 104 -20 100 -11 -2 -49 -7 -85 -10 -36 -3 -81 -8 -100 -11 -26 -3 -30 -2 -15 4 11 5 56 12 100 16 44 4 91 9 105 12 l25 4 1 -117 0 -118 -65 7 c-36 3 -95 9 -131 13 l-65 7 -13 -30 c-29 -67 -129 -92 -202 -51 -59 34 -84 88 -85 184 0 77 17 145 36 145 5 0 2 -15 -8 -32 -25 -47 -24 -170 2 -223 27 -53 76 -85 132 -85 59 0 123 42 122 80 0 9 -4 6 -9 -6 -25 -62 -127 -84 -190 -41 -45 30 -74 110 -67 188 9 106 59 159 146 155 26 -1 60 -9 74 -19z m-1854 -219 c-1 -89 -2 -99 -13 -76 -14 34 -65 88 -82 88 -6 0 -17 6 -23 14 -10 12 -7 15 17 21 16 3 44 17 63 30 19 13 35 24 37 25 1 0 2 -46 1 -102z m-346 -50 c51 -24 45 -98 -9 -118 -14 -6 -66 -10 -115 -10 l-89 0 0 70 0 70 93 0 c53 0 105 -5 120 -12z"/>
 <path d="M330 2688 l0 -63 102 2 c133 4 140 13 10 13 l-102 0 0 50 0 50 108 0 c71 0 112 -4 120 -12 18 -18 15 -69 -5 -85 -16 -13 -16 -13 5 -3 16 8 22 19 22 44 0 57 -21 66 -148 66 l-112 0 0 -62z"/>
 <path d="M815 2529 c-27 -16 -43 -29 -35 -29 8 0 31 -17 52 -37 l38 -37 0 67 c0 37 -1 67 -2 66 -2 -1 -25 -14 -53 -30z m43 -55 l-3 -26 -29 30 -28 30 28 15 c27 14 29 14 32 -4 2 -10 2 -30 0 -45z"/>
 <path d="M330 2370 l0 -60 68 2 67 1 -60 6 -60 6 -3 48 -3 47 89 0 c73 0 92 -3 105 -18 23 -25 21 -48 -5 -66 -18 -13 -19 -16 -6 -16 19 0 38 29 38 58 0 37 -42 52 -140 52 l-90 0 0 -60z"/>
 <path d="M15 2974 c11 -2 164 -4 340 -6 176 -2 293 0 260 3 -59 7 -639 9 -600 3z"/>
 <path d="M963 2973 c43 -2 110 -2 150 0 40 1 5 3 -78 3 -82 0 -115 -2 -72 -3z"/>
 <path d="M1463 2973 c42 -2 112 -2 155 0 42 1 7 3 -78 3 -85 0 -120 -2 -77 -3z"/>
 <path d="M1963 2973 c42 -2 112 -2 155 0 42 1 7 3 -78 3 -85 0 -120 -2 -77 -3z"/>
 <path d="M2540 2974 c-127 -23 -189 -51 -257 -118 -29 -27 -53 -53 -53 -57 0 -3 24 17 53 45 100 98 173 121 377 120 123 0 154 -3 204 -22 72 -26 158 -90 193 -143 l26 -40 26 33 c77 98 170 151 294 167 199 27 346 2 449 -77 43 -32 103 -103 120 -142 4 -10 7 -11 7 -2 1 22 -75 115 -126 154 -26 20 -66 43 -88 52 -138 53 -375 46 -503 -15 -59 -28 -172 -128 -172 -152 0 -5 -13 8 -30 31 -40 56 -126 118 -196 144 -45 16 -88 21 -179 24 -66 1 -131 1 -145 -2z"/>
 <path d="M731 2946 c31 -6 68 -20 83 -30 15 -10 30 -16 32 -13 11 10 -102 57 -135 56 -31 -1 -28 -2 20 -13z"/>
 <path d="M858 2915 c-2 -19 0 -35 4 -35 4 0 8 16 8 35 0 19 -2 35 -4 35 -2 0 -6 -16 -8 -35z"/>
 <path d="M1202 2732 c-2 -212 7 -304 29 -318 5 -3 3 7 -3 23 -8 18 -14 115 -18 273 l-6 245 -2 -223z"/>
 <path d="M1702 2717 c-2 -253 4 -293 46 -316 24 -13 72 -14 88 -3 30 20 34 54 32 304 l-2 253 -6 -261 c-4 -200 -8 -265 -19 -277 -14 -17 -68 -23 -86 -9 -38 27 -40 41 -45 296 l-6 251 -2 -238z"/>
 <path d="M3457 2711 c-34 -22 -43 -31 -31 -31 5 0 23 11 39 25 35 28 32 31 -8 6z"/>
 <path d="M3592 2707 c27 -12 60 -49 71 -77 5 -13 6 -13 6 0 1 23 -50 78 -79 84 -24 6 -24 6 2 -7z"/>
 <path d="M3675 2450 c-2 -3 13 -7 33 -8 20 -1 57 -6 82 -11 55 -12 185 -23 177 -15 -3 3 -45 10 -94 15 -48 5 -112 13 -141 17 -29 5 -55 6 -57 2z"/>
 <path d="M3971 2347 c-2 -31 -78 -131 -129 -169 -72 -54 -129 -69 -277 -75 -115 -5 -194 2 -260 21 -11 4 -4 -2 15 -11 29 -14 64 -18 200 -18 192 0 241 12 328 78 60 46 136 149 129 175 -4 15 -5 15 -6 -1z"/>
 <path d="M2190 2330 c0 -14 -9 -44 -20 -67 -26 -59 -15 -54 13 5 15 32 21 55 16 68 -7 17 -8 16 -9 -6z"/>
 <path d="M819 2186 c-75 -68 -82 -69 -474 -76 l-350 -6 329 -2 c380 -2 414 2 491 70 l45 40 0 -34 c0 -55 9 -58 166 -58 153 0 161 2 164 55 3 50 -3 53 -9 5 l-6 -45 -150 0 -150 0 -5 47 -5 46 -46 -42z"/>
 <path d="M2102 2175 c-44 -47 -122 -70 -216 -62 -47 4 -66 3 -59 -4 6 -6 41 -10 79 -9 38 1 89 2 114 2 25 0 34 2 21 5 -22 4 -21 6 15 23 39 17 107 80 87 80 -5 0 -24 -16 -41 -35z"/>
 <path d="M820 2064 c-110 -64 -117 -71 -17 -19 48 25 87 41 87 35 0 -5 -4 -10 -9 -10 -5 0 -101 -50 -213 -112 -111 -61 -241 -131 -288 -156 -47 -25 -87 -49 -90 -52 -10 -14 -68 -39 -74 -33 -3 4 -6 2 -6 -4 0 -6 6 -16 14 -22 11 -10 37 -7 118 14 57 14 123 31 148 37 25 6 49 14 54 19 5 4 -9 3 -30 -2 -22 -6 -55 -14 -74 -18 -19 -5 -73 -18 -119 -30 -46 -12 -86 -20 -88 -17 -3 3 8 8 23 12 16 3 56 13 89 21 33 9 76 19 95 24 19 4 91 22 160 39 69 17 143 35 165 40 22 5 96 22 164 39 115 28 125 29 148 14 21 -14 22 -18 10 -37 -8 -11 -20 -31 -28 -43 -8 -13 -18 -23 -23 -23 -4 0 3 15 16 33 35 46 40 57 29 57 -6 0 -11 -5 -11 -12 0 -6 -17 -32 -38 -57 -21 -25 -42 -53 -46 -61 -4 -8 1 -4 12 10 12 14 24 21 28 17 4 -4 2 -7 -4 -7 -7 0 -12 -4 -12 -10 0 -13 -63 -99 -73 -99 -4 -1 4 15 19 34 14 19 24 35 21 35 -3 0 -38 -43 -79 -97 -40 -53 -84 -111 -98 -129 -56 -73 -90 -123 -90 -131 0 -4 14 12 30 37 16 25 30 41 30 37 0 -10 -59 -97 -66 -97 -3 0 -2 5 1 10 3 6 3 10 -2 10 -4 -1 -21 -20 -37 -43 -16 -23 -22 -36 -13 -28 20 16 23 1 5 -17 -10 -10 -10 -15 2 -22 9 -6 10 -10 3 -10 -7 0 -17 8 -22 18 -6 9 -11 12 -11 6 0 -6 7 -17 15 -24 12 -10 23 -5 62 27 27 21 82 65 123 96 41 31 125 95 185 142 303 235 299 232 346 226 l42 -6 12 -60 c7 -33 18 -109 25 -170 24 -206 27 -223 28 -185 1 29 -11 136 -45 377 -3 27 -12 44 -22 47 -35 11 -90 9 -105 -3 -9 -8 -16 -9 -16 -5 0 21 37 31 87 24 29 -3 54 -8 56 -11 6 -7 35 -214 52 -369 9 -80 20 -164 26 -187 5 -23 9 -62 9 -87 0 -45 14 -62 23 -28 7 23 36 172 52 257 3 17 14 75 26 130 11 55 23 116 25 135 2 19 9 48 14 64 6 16 10 42 10 57 0 30 2 31 80 43 38 6 31 12 303 -238 49 -45 93 -82 98 -84 5 -2 9 -8 9 -14 0 -10 -108 83 -235 203 -139 131 -136 129 -191 121 -49 -7 -49 -7 -57 -52 -5 -25 -10 -65 -12 -90 l-4 -45 9 45 c26 133 21 124 70 132 49 9 33 19 175 -113 259 -241 475 -434 460 -410 -6 11 -4 13 8 8 12 -4 14 -2 10 10 -4 11 -2 14 5 9 7 -4 -2 16 -20 43 -39 63 -50 67 -14 6 15 -25 25 -45 23 -45 -10 0 -57 82 -55 95 3 12 -26 61 -147 248 -70 107 -175 276 -175 281 0 14 39 12 111 -5 45 -11 84 -18 86 -15 2 2 -35 13 -83 25 -62 14 -92 17 -106 10 -10 -5 -18 -12 -18 -15 0 -5 58 -100 113 -186 21 -32 33 -58 27 -58 -5 0 -10 4 -10 8 0 9 -108 181 -134 216 -14 17 -13 21 9 38 24 18 26 18 152 -12 70 -17 146 -35 168 -40 35 -8 216 -52 325 -80 76 -19 205 -50 213 -50 4 0 7 5 7 10 0 6 -5 10 -10 10 -9 0 -177 88 -350 183 -30 16 -85 45 -122 64 -37 19 -70 38 -73 44 -8 12 8 12 20 0 6 -5 39 -25 75 -44 36 -19 100 -53 143 -76 44 -24 81 -41 83 -38 2 2 -20 16 -48 30 -90 45 -242 128 -255 139 -7 5 -17 7 -23 3 -5 -3 -40 10 -77 29 -66 35 -123 47 -123 25 0 -5 -4 -8 -9 -4 -5 3 -13 0 -17 -6 -4 -8 -3 -9 4 -5 17 11 15 -9 -3 -24 -13 -11 -15 -8 -15 19 0 29 -2 31 -35 31 l-35 0 0 -61 c0 -33 4 -58 8 -55 5 3 7 19 6 35 -2 28 0 30 20 19 11 -6 23 -12 25 -14 4 -4 -88 -92 -110 -104 -12 -7 -16 -4 -16 8 0 9 4 20 9 23 5 3 3 9 -6 12 -13 5 -16 -1 -16 -28 0 -30 -5 -37 -40 -55 -21 -11 -42 -20 -45 -20 -3 0 -4 55 -3 123 2 115 2 117 5 29 4 -89 5 -93 29 -102 14 -6 30 -10 35 -10 5 0 9 44 9 99 l0 99 -37 3 c-21 2 -55 3 -75 1 l-38 -3 0 -98 c0 -54 -3 -112 -6 -129 -5 -24 -3 -30 10 -28 8 1 19 5 22 9 4 4 12 7 18 7 7 0 7 -3 -1 -11 -10 -10 -106 -39 -130 -39 -10 0 -13 36 -13 145 l0 145 -35 0 -35 0 0 -122 c0 -68 -3 -133 -6 -145 -5 -19 -2 -23 17 -23 22 0 22 0 3 15 -10 8 -14 14 -9 14 6 0 18 -6 28 -13 16 -12 16 -14 1 -20 -21 -8 -144 -6 -166 2 -15 6 -14 9 7 19 14 6 23 7 20 3 -3 -5 -1 -11 4 -14 5 -4 8 2 6 11 -2 10 -4 75 -4 146 l-1 127 -36 0 -35 0 3 -146 c3 -141 2 -145 -17 -140 -11 3 -28 6 -38 6 -10 0 -15 5 -12 10 9 14 42 12 48 -2 2 -7 5 51 6 128 l2 142 -38 3 c-21 2 -55 3 -75 1 l-37 -3 -3 -119 -3 -118 -33 17 -33 17 25 12 c22 10 24 9 21 -9 -2 -10 0 -19 6 -19 5 0 9 48 9 110 l0 110 -35 0 -35 0 -1 -92 c-1 -51 -1 -97 0 -102 3 -12 -43 18 -101 66 -44 36 -134 140 -95 109 23 -18 22 1 -1 22 -29 26 -71 18 -152 -29z m128 29 c-10 -2 -28 -2 -40 0 -13 2 -5 4 17 4 22 1 32 -1 23 -4z m379 -270 c-2 -2 -19 3 -38 11 -19 9 -29 15 -22 16 6 0 20 3 30 6 13 4 14 3 5 -4 -11 -7 -11 -10 2 -15 14 -6 16 10 18 126 l2 132 3 -134 c2 -73 2 -135 0 -138z m-67 -120 c-14 -9 -86 -64 -160 -121 -157 -122 -174 -134 -140 -101 37 37 303 239 315 239 5 0 -2 -8 -15 -17z m-370 -120 c-24 -32 -46 -60 -49 -63 -4 -3 -17 -22 -31 -42 -14 -21 -29 -38 -33 -38 -5 0 1 12 13 28 109 140 130 168 130 176 0 5 3 6 6 3 4 -4 -13 -32 -36 -64z m1417 -220 c8 -13 12 -23 7 -23 -10 1 -174 261 -174 276 0 5 34 -45 75 -111 42 -66 83 -130 92 -142z m-1388 80 c-13 -15 -96 -78 -128 -98 -31 -18 0 13 41 41 23 16 53 39 66 52 29 26 40 29 21 5z m1284 -70 c61 -56 167 -161 132 -132 -16 13 -54 47 -85 76 -30 28 -66 60 -80 72 -14 11 -21 20 -17 21 4 0 27 -17 50 -37z m-1454 -62 c-13 -11 -26 -17 -28 -15 -5 5 30 33 43 34 4 0 -2 -9 -15 -19z"/>
 <path d="M1103 2103 c9 -2 25 -2 35 0 9 3 1 5 -18 5 -19 0 -27 -2 -17 -5z"/>
 <path d="M1183 2103 c9 -2 25 -2 35 0 9 3 1 5 -18 5 -19 0 -27 -2 -17 -5z"/>
 <path d="M1263 2103 c9 -2 25 -2 35 0 9 3 1 5 -18 5 -19 0 -27 -2 -17 -5z"/>
 <path d="M1700 2100 l35 -7 -32 -2 -33 -1 0 -117 c0 -65 -3 -128 -6 -140 -5 -18 -2 -23 12 -23 16 0 17 2 4 11 -11 8 -7 9 18 5 l32 -5 0 134 c0 74 1 138 3 143 1 4 -14 8 -33 9 l-35 1 35 -8z"/>
 <path d="M1763 2103 c9 -2 25 -2 35 0 9 3 1 5 -18 5 -19 0 -27 -2 -17 -5z"/>
 <path d="M2135 2101 c17 -3 49 -16 73 -29 57 -30 54 -20 -4 12 -26 14 -58 25 -73 25 -25 -2 -25 -2 4 -8z"/>
 <path d="M1039 2092 c-41 -3 -56 -29 -35 -57 17 -24 64 -1 69 34 2 14 5 -4 6 -41 0 -37 5 -69 11 -73 5 -3 21 -3 35 1 23 6 25 10 25 69 l0 63 -37 3 c-21 2 -54 3 -74 1z"/>
 <path d="M1910 2030 c0 -48 4 -61 19 -70 44 -23 51 -14 51 60 l0 70 -35 0 -35 0 0 -60z"/>
 <path d="M1040 2020 c-13 -8 -12 -13 8 -32 l22 -22 0 32 c0 34 -5 38 -30 22z"/>
 <path d="M613 1949 c-51 -27 -93 -52 -93 -55 0 -6 169 84 185 98 18 16 0 7 -92 -43z"/>
 <path d="M1114 1938 c-5 -8 -2 -9 10 -5 9 4 14 3 11 -2 -3 -5 -1 -12 5 -16 5 -3 10 3 10 14 0 23 -24 29 -36 9z"/>
 <path d="M1830 1879 c0 -17 3 -18 20 -9 11 6 20 12 20 14 0 2 -9 6 -20 9 -15 4 -20 0 -20 -14z"/>
 <path d="M423 1847 c-40 -23 -95 -55 -124 -70 -28 -16 -48 -31 -45 -34 3 -4 14 1 23 9 10 8 59 36 108 63 95 50 136 76 120 74 -6 0 -42 -20 -82 -42z"/>
 <path d="M970 1869 c-41 -10 -91 -21 -110 -25 -19 -3 -43 -10 -52 -15 -9 -5 -26 -9 -38 -9 -12 0 -42 -6 -68 -14 -26 -8 -69 -20 -95 -27 -26 -6 -46 -13 -44 -15 2 -2 39 5 83 17 43 11 97 24 119 29 22 4 47 10 55 13 8 4 26 8 40 11 14 2 57 12 95 21 39 9 80 17 92 17 13 0 20 4 17 9 -6 11 -1 11 -94 -12z"/>
 <path d="M2645 1842 c14 -15 197 -114 202 -109 2 2 -29 21 -69 42 -40 21 -89 47 -108 58 -19 11 -30 15 -25 9z"/>
 <path d="M2240 1829 c19 -6 53 -14 75 -19 22 -4 76 -18 119 -29 44 -12 81 -19 84 -16 3 3 3 5 0 5 -3 0 -41 9 -84 21 -88 23 -154 38 -199 44 -26 4 -26 3 5 -6z"/>
 <path d="M2565 1749 c32 -10 91 -25 140 -34 41 -8 -35 18 -98 33 -56 14 -85 14 -42 1z"/>
 <path d="M2785 1695 c27 -8 51 -12 53 -10 5 5 -69 25 -88 24 -8 0 7 -7 35 -14z"/>
 <path d="M1635 1529 c-14 -62 -34 -183 -31 -187 2 -2 9 23 16 55 6 32 15 78 20 103 9 46 5 71 -5 29z"/>
 <path d="M1596 1318 c-4 -14 -22 -102 -30 -153 -3 -16 -10 -47 -15 -69 -5 -21 -6 -35 -2 -30 7 8 20 61 37 154 3 19 9 52 14 73 7 34 4 53 -4 25z"/>
 <path d="M1477 1220 c3 -30 9 -80 14 -110 l8 -55 -5 65 c-2 36 -8 85 -14 110 -9 44 -9 44 -3 -10z"/>
 </g>

</svg>