<!DOCTYPE svg PUBLIC "-//W3C//DTD SVG 20010904//EN" "http://www.w3.org/TR/2001/REC-SVG-20010904/DTD/svg10.dtd">
<svg version="1.0" xmlns="http://www.w3.org/2000/svg" width="1398px" height="1348px" viewBox="0 0 12000 11570" preserveAspectRatio="xMidYMid meet">
<g id="layer101" fill="#201f1f" stroke="none">
<path d="M4320 11450 c-133 -8 -300 -44 -485 -105 -122 -40 -341 -134 -375 -161 -8 -6 -31 -19 -50 -29 -45 -22 -204 -129 -252 -169 -20 -17 -51 -42 -69 -56 -41 -32 -225 -217 -264 -266 -16 -21 -41 -51 -55 -68 -94 -116 -151 -215 -331 -576 -272 -546 -1019 -2057 -1261 -2550 -82 -168 -159 -323 -171 -345 -11 -22 -24 -47 -28 -55 -5 -8 -63 -127 -129 -265 -67 -137 -131 -268 -143 -290 -31 -61 -26 -50 -185 -375 -196 -403 -258 -541 -277 -625 -4 -16 -18 -67 -31 -113 -41 -144 -56 -273 -61 -512 -4 -194 -2 -245 16 -370 75 -506 304 -945 682 -1305 197 -188 284 -243 694 -448 176 -87 329 -164 340 -170 53 -29 1135 -564 2430 -1202 187 -92 484 -238 660 -325 176 -87 433 -212 570 -280 138 -67 268 -131 290 -143 22 -11 47 -24 55 -28 213 -111 908 -439 929 -439 6 0 53 -13 104 -29 50 -16 157 -42 237 -57 137 -27 158 -29 390 -27 241 1 256 2 465 44 83 16 244 64 340 101 182 70 433 210 552 307 18 14 49 40 70 56 103 83 279 268 371 390 86 115 182 288 363 655 61 124 205 414 319 645 378 765 819 1661 1025 2080 70 143 196 400 280 570 424 863 444 904 490 1035 38 111 65 218 96 390 23 133 26 496 5 635 -55 354 -179 684 -347 929 -30 43 -61 88 -69 100 -25 36 -183 219 -226 261 -40 39 -123 113 -194 172 -50 43 -186 136 -250 172 -55 32 -761 384 -1400 698 -190 94 -505 249 -700 346 -195 96 -512 252 -705 347 -192 95 -519 256 -725 357 -206 102 -485 239 -620 305 -279 136 -262 128 -315 156 -41 22 -707 348 -830 407 -413 197 -731 255 -1225 225z m520 -599 c58 -11 141 -32 184 -46 43 -14 82 -25 87 -25 8 0 232 -107 564 -270 99 -48 293 -143 430 -210 138 -67 261 -127 275 -135 14 -7 39 -20 55 -29 17 -8 206 -102 420 -207 215 -105 491 -241 615 -303 l225 -111 -2075 -6 c-1894 -5 -2081 -7 -2142 -22 -38 -9 -96 -23 -130 -31 -166 -36 -413 -143 -573 -249 -49 -33 -98 -66 -107 -75 -10 -8 -18 -12 -18 -8 0 27 437 897 506 1009 64 103 239 290 369 395 233 187 552 314 875 346 93 9 337 -4 440 -23z m3643 -1941 c161 -19 360 -94 517 -198 103 -67 266 -229 336 -332 87 -130 163 -303 192 -440 14 -67 16 -307 19 -2169 3 -1855 2 -2100 -12 -2147 -8 -28 -15 -60 -15 -70 0 -28 -57 -182 -98 -264 -91 -184 -254 -366 -431 -484 -120 -80 -196 -114 -365 -166 l-133 -40 -2459 2 -2459 3 -108 33 c-192 59 -297 111 -442 218 -112 83 -250 237 -309 344 -103 189 -154 335 -166 475 -12 135 -12 4100 0 4190 22 167 120 406 223 542 75 99 221 241 310 301 176 118 371 191 537 202 177 11 4764 11 4863 0z m1714 -629 c89 -44 171 -85 182 -90 12 -6 29 -15 39 -20 114 -56 269 -152 318 -196 6 -5 37 -32 69 -60 56 -48 204 -215 253 -287 247 -352 345 -772 282 -1200 -10 -73 -31 -166 -45 -207 -14 -41 -25 -80 -25 -87 0 -15 -38 -94 -432 -904 -201 -413 -632 -1291 -676 -1378 -16 -32 -17 -17 -23 350 -3 211 -7 1126 -8 2033 -1 1040 -5 1676 -11 1720 -15 101 -75 314 -119 418 -2 5 5 4 15 -2 11 -5 92 -46 181 -90z m-8248 -2716 c8 -1739 11 -1967 25 -2025 9 -36 20 -89 26 -118 5 -29 25 -101 45 -159 20 -58 34 -107 32 -109 -5 -6 -505 246 -544 274 -17 12 -34 22 -38 22 -19 0 -180 126 -268 209 -47 44 -165 187 -216 261 -110 161 -186 334 -242 555 -33 128 -33 133 -34 360 0 219 1 236 29 355 45 196 59 229 296 715 49 99 143 293 210 430 132 271 127 262 158 320 11 22 105 211 207 420 103 209 212 432 243 495 l57 115 3 -80 c1 -44 6 -962 11 -2040z m7505 -3160 c-4 -8 -113 -228 -243 -488 -269 -538 -306 -597 -480 -780 -65 -68 -259 -227 -278 -227 -3 0 -14 -6 -22 -14 -26 -22 -159 -91 -251 -129 -134 -55 -254 -88 -400 -108 -343 -47 -631 -1 -965 154 -77 35 -153 72 -170 81 -16 9 -217 108 -445 220 -228 112 -575 282 -770 379 -703 346 -1025 504 -1040 510 -8 3 260 6 595 7 336 1 1272 5 2080 10 1634 8 1518 3 1770 78 122 36 166 54 310 125 82 41 266 159 286 183 15 19 30 18 23 -1z"/>
<path d="M6425 6654 c-205 -50 -368 -135 -472 -247 -99 -107 -167 -225 -215 -373 l-32 -99 0 -235 -1 -235 32 -97 c79 -240 216 -412 425 -535 285 -167 718 -159 979 18 254 171 407 494 409 857 l0 112 -665 0 -665 0 0 28 c0 65 29 174 63 234 38 68 60 92 122 131 129 81 407 72 517 -17 57 -45 107 -100 119 -128 l11 -28 229 0 c268 0 251 -11 190 128 -50 113 -95 183 -162 252 -100 102 -179 150 -331 202 -92 32 -94 32 -313 34 -121 2 -229 0 -240 -2z m592 -1178 c6 -5 -39 -130 -65 -185 -27 -54 -110 -129 -169 -151 -72 -27 -236 -28 -308 -2 -75 26 -155 91 -194 156 -27 46 -59 145 -61 190 0 9 788 1 797 -8z"/>
<path d="M7960 6637 c-103 -38 -132 -52 -185 -92 -69 -52 -126 -127 -161 -210 -28 -67 -29 -76 -29 -225 l0 -155 36 -75 c64 -134 156 -215 305 -269 92 -33 362 -86 514 -101 58 -5 137 -19 175 -30 39 -12 80 -24 91 -27 12 -3 37 -21 55 -40 33 -34 34 -36 34 -122 0 -81 -3 -91 -28 -125 -16 -20 -39 -44 -53 -52 -60 -40 -239 -55 -347 -30 -110 26 -175 91 -197 199 l-11 57 -263 0 -262 0 7 -67 c7 -77 56 -209 95 -257 63 -77 134 -142 189 -172 79 -42 111 -56 195 -82 209 -66 633 -63 832 6 171 59 277 143 339 268 l34 69 6 670 c7 667 9 704 44 787 8 21 15 42 15 48 0 7 -86 9 -267 8 l-268 -3 -6 -50 c-8 -61 -18 -95 -28 -95 -4 0 -21 11 -37 25 -55 48 -139 93 -234 126 -93 32 -98 32 -310 36 -206 3 -218 2 -280 -20z m634 -355 c60 -27 136 -99 166 -159 23 -44 25 -61 28 -210 2 -90 0 -163 -5 -163 -4 0 -42 11 -84 25 -42 13 -116 29 -165 35 -312 38 -426 113 -426 279 0 117 62 191 177 212 75 14 259 3 309 -19z"/>
<path d="M2730 5690 l0 -930 245 0 245 0 0 63 c0 34 3 86 7 115 l6 53 66 -71 c36 -38 71 -70 77 -70 6 0 21 -11 33 -24 38 -41 174 -92 282 -106 81 -11 113 -11 215 2 153 20 246 62 334 151 33 33 60 64 60 69 0 5 7 20 16 33 l16 25 98 -93 c157 -150 259 -189 480 -189 200 1 324 34 439 117 46 34 101 88 101 100 0 3 9 18 20 33 11 15 36 66 55 114 49 120 54 210 55 941 l0 597 -265 0 -265 0 -1 -377 c0 -208 -4 -502 -8 -654 l-7 -275 -27 -46 c-69 -118 -189 -161 -349 -127 -99 22 -153 71 -205 189 l-28 65 -3 613 -3 612 -263 0 -263 0 -5 -642 c-5 -635 -6 -644 -27 -694 -33 -75 -86 -123 -158 -140 -74 -17 -124 -17 -190 0 -100 27 -164 83 -213 188 l-32 67 -5 611 -6 610 -264 0 -263 0 0 -930z"/>
</g>
<g id="layer102" fill="#4d4c4c" stroke="none">
<path d="M4240 11440 c0 -5 11 -10 25 -10 14 0 25 5 25 10 0 6 -11 10 -25 10 -14 0 -25 -4 -25 -10z"/>
<path d="M4318 11443 c12 -2 32 -2 45 0 12 2 2 4 -23 4 -25 0 -35 -2 -22 -4z"/>
<path d="M4701 11446 c11 -9 149 -15 149 -6 0 6 -32 10 -77 10 -42 0 -74 -2 -72 -4z"/>
<path d="M4185 11430 c3 -5 13 -10 21 -10 8 0 14 5 14 10 0 6 -9 10 -21 10 -11 0 -17 -4 -14 -10z"/>
<path d="M4860 11430 c0 -5 9 -10 19 -10 11 0 23 5 26 10 4 6 -5 10 -19 10 -14 0 -26 -4 -26 -10z"/>
<path d="M4920 11419 c0 -6 6 -9 14 -6 8 3 56 -5 105 -18 50 -14 102 -27 116 -29 14 -3 35 -7 48 -11 17 -5 18 -4 6 4 -14 9 -259 71 -280 71 -5 0 -9 -5 -9 -11z"/>
<path d="M5240 11342 c8 -5 26 -13 40 -16 17 -5 20 -4 10 2 -8 5 -26 13 -40 16 -17 5 -20 4 -10 -2z"/>
<path d="M5350 11308 c12 -13 110 -58 110 -51 0 5 -21 17 -47 28 -62 26 -69 29 -63 23z"/>
<path d="M3658 11282 c-21 -10 -38 -20 -38 -25 0 -6 76 27 89 39 9 8 -16 1 -51 -14z"/>
<path d="M5497 11241 c43 -27 721 -363 729 -361 4 1 10 -2 13 -7 3 -4 31 -20 61 -35 62 -30 692 -340 1170 -575 173 -86 452 -223 620 -305 168 -83 454 -224 635 -313 182 -89 465 -229 630 -310 645 -317 919 -452 1153 -567 134 -66 245 -119 247 -117 2 2 -137 73 -308 157 -172 85 -321 159 -332 165 -33 18 -525 261 -2070 1022 -187 92 -513 253 -725 357 -212 105 -495 244 -630 310 -277 135 -261 127 -315 156 -22 11 -152 75 -290 142 -137 67 -259 126 -270 132 -43 24 -323 161 -340 166 -5 2 5 -5 22 -17z"/>
<path d="M3518 11214 c-38 -19 -68 -37 -68 -39 0 -3 32 11 70 30 39 19 70 37 70 40 0 7 3 8 -72 -31z"/>
<path d="M3413 11158 c-13 -6 -23 -15 -23 -20 0 -5 11 -1 25 8 37 24 35 30 -2 12z"/>
<path d="M3284 11077 c-280 -191 -559 -491 -684 -736 -34 -68 -15 -46 40 44 159 265 417 532 675 700 74 48 69 44 64 49 -2 3 -45 -23 -95 -57z"/>
<path d="M4356 10889 c-93 -10 -303 -60 -395 -95 -226 -86 -411 -203 -579 -366 -174 -169 -273 -315 -432 -643 -51 -104 -151 -308 -223 -453 -71 -144 -128 -264 -125 -267 2 -3 31 17 64 43 95 75 212 150 314 199 142 69 379 148 470 157 19 2 68 7 108 11 96 10 109 30 16 23 -155 -11 -407 -86 -594 -176 -103 -50 -266 -148 -312 -190 -10 -8 -18 -12 -18 -8 0 27 437 897 506 1009 64 103 239 290 369 395 197 159 454 274 725 324 90 17 154 21 295 21 196 0 324 -18 479 -68 43 -14 82 -25 87 -25 8 0 232 -107 564 -270 99 -48 293 -143 430 -210 138 -67 261 -127 275 -135 14 -7 39 -20 55 -29 17 -8 206 -102 420 -207 215 -105 491 -241 615 -303 l225 -111 -1920 -5 c-1056 -3 -1895 -8 -1865 -12 81 -11 3852 -10 3846 1 -3 5 -70 41 -148 79 -79 39 -345 170 -593 292 -247 122 -589 291 -760 375 -170 84 -480 236 -688 339 -208 102 -380 186 -384 186 -4 0 -34 11 -69 25 -207 83 -508 120 -758 94z"/>
<path d="M2347 9835 c-9 -19 -15 -35 -12 -35 7 0 37 61 33 66 -3 2 -12 -12 -21 -31z"/>
<path d="M2287 9715 c-9 -19 -15 -35 -12 -35 7 0 37 61 33 66 -3 2 -12 -12 -21 -31z"/>
<path d="M2215 9570 c-9 -16 -13 -30 -11 -30 3 0 12 14 21 30 9 17 13 30 11 30 -3 0 -12 -13 -21 -30z"/>
<path d="M2155 9450 c-9 -16 -13 -30 -11 -30 3 0 12 14 21 30 9 17 13 30 11 30 -3 0 -12 -13 -21 -30z"/>
<path d="M2085 9310 c-9 -16 -13 -30 -11 -30 3 0 12 14 21 30 9 17 13 30 11 30 -3 0 -12 -13 -21 -30z"/>
<path d="M1980 9098 c-101 -205 -94 -188 -81 -188 6 0 10 3 9 8 -1 4 9 27 22 52 13 25 24 47 25 50 0 3 28 60 62 128 35 67 59 122 55 122 -4 -1 -45 -78 -92 -172z"/>
<path d="M3618 8932 c-21 -2 -38 -6 -38 -10 0 -4 1079 -6 2397 -4 1468 2 2435 -1 2493 -7 242 -24 510 -154 702 -339 139 -135 238 -288 313 -487 62 -162 58 -24 64 -2305 4 -1212 9 -2037 14 -1970 5 63 7 1002 5 2086 -2 1573 -6 1974 -16 1986 -7 9 -10 22 -6 31 3 8 0 18 -5 22 -6 3 -9 10 -6 15 9 14 -50 192 -92 276 -66 135 -131 223 -247 339 -187 186 -365 286 -611 344 l-91 21 -2419 3 c-1331 2 -2437 1 -2457 -1z"/>
<path d="M3490 8904 c-25 -7 -53 -14 -63 -14 -40 0 -244 -97 -344 -163 -173 -114 -326 -283 -425 -472 -31 -59 -86 -203 -93 -246 -3 -16 -12 -59 -21 -96 -14 -60 -16 -300 -17 -2158 -1 -1882 0 -2095 15 -2145 l16 -55 -7 70 c-3 39 -6 1013 -6 2165 l0 2095 33 115 c39 137 123 311 194 406 120 159 293 306 458 389 58 29 255 100 325 118 l20 5 -20 0 c-11 0 -40 -6 -65 -14z"/>
<path d="M1857 8845 c-15 -30 -23 -55 -19 -54 9 0 63 109 53 109 -4 0 -19 -25 -34 -55z"/>
<path d="M1797 8725 c-15 -30 -23 -55 -19 -54 9 0 63 109 53 109 -4 0 -19 -25 -34 -55z"/>
<path d="M1613 8352 c-326 -659 -592 -1200 -735 -1492 -83 -168 -159 -323 -171 -345 -31 -60 -28 -53 -158 -320 -67 -137 -135 -276 -151 -307 -15 -32 -25 -58 -21 -58 7 1 263 509 265 527 1 4 15 31 31 58 16 28 30 55 31 60 2 6 69 144 150 307 81 164 146 299 146 300 -1 2 14 31 34 65 20 34 36 64 36 67 0 3 82 171 181 373 100 202 246 501 326 663 80 162 158 321 174 353 16 31 26 57 22 57 -5 0 -76 -139 -160 -308z"/>
<path d="M10774 8641 c4 -5 46 -34 94 -62 48 -29 89 -56 90 -61 2 -4 9 -8 15 -8 6 0 21 -10 34 -22 13 -12 25 -19 28 -16 5 5 -167 128 -179 128 -4 0 -25 12 -47 26 -23 14 -38 21 -35 15z"/>
<path d="M11050 8462 c0 -5 15 -19 33 -32 l32 -23 -29 31 c-31 34 -36 37 -36 24z"/>
<path d="M9970 8405 c0 -4 6 -18 14 -33 28 -53 86 -249 108 -362 l23 -115 5 -2078 5 -2077 142 287 c78 159 231 470 341 693 110 223 297 603 417 845 228 462 268 557 310 733 36 152 45 228 45 382 0 432 -173 856 -476 1165 -107 109 -202 183 -369 287 -38 23 -551 278 -561 278 -2 0 -4 -2 -4 -5z m227 -124 c89 -44 171 -85 182 -90 12 -6 29 -15 39 -20 114 -56 269 -152 318 -196 6 -5 37 -32 69 -60 56 -48 204 -215 253 -287 247 -352 345 -772 282 -1200 -10 -73 -31 -166 -45 -207 -14 -41 -25 -80 -25 -87 0 -15 -38 -94 -432 -904 -215 -440 -629 -1285 -676 -1378 -16 -32 -17 -17 -23 350 -3 211 -7 1126 -8 2033 -1 1040 -5 1676 -11 1720 -15 101 -75 314 -119 418 -2 5 5 4 15 -2 11 -5 92 -46 181 -90z"/>
<path d="M11275 8262 c49 -51 92 -92 94 -92 7 0 -102 113 -144 149 -22 19 0 -7 50 -57z"/>
<path d="M11438 8085 c12 -24 50 -65 59 -65 4 0 -6 15 -23 33 -16 17 -33 37 -38 42 -4 6 -4 1 2 -10z"/>
<path d="M11512 7983 c25 -28 92 -129 97 -148 2 -5 11 -21 21 -35 10 -14 32 -53 49 -87 17 -35 33 -63 36 -63 7 0 -32 85 -59 129 -14 22 -26 43 -26 46 0 5 -89 137 -113 168 -8 9 -18 17 -22 17 -5 0 3 -12 17 -27z"/>
<path d="M1923 7702 c-18 -37 -137 -278 -264 -537 -704 -1430 -799 -1624 -827 -1690 -43 -101 -82 -244 -102 -376 -101 -677 214 -1345 798 -1692 26 -15 167 -88 315 -161 190 -95 267 -129 267 -118 0 9 -13 50 -30 91 -45 118 -82 265 -94 383 -7 59 -15 110 -19 114 -13 13 -7 -109 8 -176 9 -36 19 -89 25 -118 5 -29 25 -101 45 -159 20 -58 34 -107 32 -109 -5 -6 -505 246 -544 274 -17 12 -34 22 -38 22 -19 0 -180 126 -268 209 -47 44 -165 187 -216 261 -110 161 -186 334 -242 555 -33 128 -33 133 -34 360 0 219 1 236 29 355 45 196 59 229 296 715 49 99 143 293 210 430 67 138 131 268 143 290 11 22 24 47 28 55 5 8 92 186 195 395 102 209 211 432 242 495 l57 115 6 -720 c3 -396 8 -1262 9 -1925 2 -663 7 -1146 11 -1075 9 175 11 3805 2 3804 -5 0 -22 -30 -40 -67z"/>
<path d="M11767 7525 c15 -30 28 -53 30 -51 5 5 -42 106 -49 106 -4 0 4 -25 19 -55z"/>
<path d="M11830 7353 c15 -43 28 -82 28 -86 0 -12 12 -23 12 -11 0 18 -55 174 -62 174 -4 0 6 -35 22 -77z"/>
<path d="M11871 7200 c0 -8 4 -24 9 -35 5 -13 9 -14 9 -5 0 8 -4 24 -9 35 -5 13 -9 14 -9 5z"/>
<path d="M11916 6973 c-4 -9 -2 -21 4 -27 7 -7 10 -2 10 17 0 31 -5 34 -14 10z"/>
<path d="M11920 6885 c0 -14 5 -25 10 -25 6 0 10 11 10 25 0 14 -4 25 -10 25 -5 0 -10 -11 -10 -25z"/>
<path d="M11934 6675 c0 -88 2 -123 3 -77 2 46 2 118 0 160 -1 42 -3 5 -3 -83z"/>
<path d="M6818 6648 c9 -9 15 -9 24 0 9 9 7 12 -12 12 -19 0 -21 -3 -12 -12z"/>
<path d="M7978 6644 c-27 -8 -48 -17 -48 -20 0 -3 10 -2 23 2 12 4 30 7 39 6 10 0 20 3 23 8 3 4 14 6 25 3 11 -3 20 0 20 6 0 14 -24 13 -82 -5z"/>
<path d="M8313 6653 c9 -2 25 -2 35 0 9 3 1 5 -18 5 -19 0 -27 -2 -17 -5z"/>
<path d="M8380 6650 c0 -5 6 -10 14 -10 8 0 18 5 21 10 3 6 -3 10 -14 10 -12 0 -21 -4 -21 -10z"/>
<path d="M8430 6639 c0 -6 7 -9 15 -6 8 4 47 -5 87 -19 40 -13 68 -20 63 -15 -12 10 -133 51 -152 51 -7 0 -13 -5 -13 -11z"/>
<path d="M6970 6614 c36 -14 74 -28 85 -31 53 -16 167 -94 235 -162 62 -63 86 -97 136 -196 34 -66 64 -132 68 -148 l6 -27 -221 2 c-198 3 -222 5 -225 20 -8 55 -148 166 -248 197 -59 18 -119 19 -267 7 -73 -6 -163 -52 -217 -111 -72 -79 -108 -179 -115 -318 l-2 -37 667 0 667 0 4 -117 3 -118 2 123 2 122 -665 0 -665 0 0 28 c0 103 62 265 122 318 108 96 298 131 463 84 99 -28 205 -111 236 -182 l11 -28 229 0 c268 0 251 -11 190 128 -102 232 -245 368 -470 446 -95 33 -117 33 -31 0z"/>
<path d="M6265 6606 c-132 -50 -233 -114 -312 -200 -100 -107 -169 -227 -213 -371 -33 -107 -36 -125 -19 -125 6 0 8 7 5 16 -7 18 30 134 73 229 17 36 30 68 30 72 -1 3 3 9 8 12 4 3 25 32 47 63 83 124 219 227 385 293 47 19 79 34 71 34 -8 0 -42 -11 -75 -23z"/>
<path d="M2730 5690 l0 -930 247 0 c135 0 244 3 240 6 -3 3 -110 5 -236 5 l-231 -2 0 921 0 920 245 0 245 0 0 -552 c0 -323 4 -579 10 -615 19 -114 74 -214 145 -263 109 -75 251 -89 360 -36 66 33 95 69 126 156 23 65 24 67 27 688 l3 622 244 0 244 0 3 -587 c4 -520 6 -594 21 -643 10 -30 19 -64 22 -75 8 -34 58 -98 103 -132 115 -87 325 -80 424 14 44 42 77 130 88 234 5 52 10 340 10 642 l0 547 245 0 245 0 1 -642 c1 -354 5 -618 9 -588 5 30 8 322 9 648 l1 592 -265 0 -265 0 -1 -377 c0 -208 -4 -502 -8 -654 l-7 -275 -27 -46 c-69 -118 -189 -161 -349 -127 -99 22 -153 71 -205 189 l-28 65 -3 613 -3 612 -263 0 -263 0 -5 -642 c-5 -635 -6 -644 -27 -694 -33 -75 -86 -123 -158 -140 -74 -17 -124 -17 -190 0 -100 27 -164 83 -213 188 l-32 67 -5 611 -6 610 -264 0 -263 0 0 -930z"/>
<path d="M8857 6613 c-4 -3 -7 -22 -6 -42 l0 -36 12 35 12 35 248 3 247 2 -6 -27 c-4 -16 -13 -53 -22 -83 -12 -43 -16 -123 -17 -355 l-3 -300 8 295 c8 290 14 349 45 422 8 21 15 42 15 48 0 11 -522 15 -533 3z"/>
<path d="M7805 6566 c-76 -51 -143 -129 -181 -210 -38 -83 -54 -156 -34 -156 8 0 11 9 8 25 -3 14 -2 25 2 25 4 0 8 11 8 24 0 14 14 55 31 92 33 71 136 181 193 207 15 6 28 15 28 19 0 11 -1 11 -55 -26z"/>
<path d="M8610 6590 c0 -5 6 -10 13 -10 19 0 135 -75 174 -113 18 -17 35 -29 37 -26 2 2 6 24 10 49 5 41 5 42 -5 13 -5 -18 -14 -33 -18 -33 -5 0 -28 15 -50 34 -39 33 -141 96 -155 96 -3 0 -6 -4 -6 -10z"/>
<path d="M11927 6493 c-11 -10 -8 -63 3 -63 6 0 10 16 10 35 0 36 -2 40 -13 28z"/>
<path d="M11913 6394 c-3 -8 -1 -20 6 -27 8 -8 11 -4 11 16 0 30 -7 35 -17 11z"/>
<path d="M8245 6309 c-107 -37 -158 -108 -158 -219 0 -113 45 -180 155 -234 46 -22 230 -59 397 -81 49 -6 106 -25 136 -45 17 -11 34 -20 39 -20 4 0 6 73 4 163 -4 139 -9 171 -29 226 -32 87 -93 152 -177 193 -62 29 -76 32 -187 35 -102 3 -129 0 -180 -18z m349 -27 c60 -27 136 -99 166 -159 23 -44 25 -61 28 -210 2 -90 0 -163 -5 -163 -4 0 -42 11 -84 25 -42 13 -116 29 -165 35 -312 38 -426 113 -426 279 0 117 62 191 177 212 75 14 259 3 309 -19z"/>
<path d="M11886 6214 c-10 -44 -21 -85 -23 -91 -3 -7 0 -13 6 -13 6 0 11 9 11 21 0 12 7 48 16 81 8 33 14 64 12 70 -2 6 -12 -25 -22 -68z"/>
<path d="M7583 6115 c0 -33 2 -45 4 -27 2 18 2 45 0 60 -2 15 -4 0 -4 -33z"/>
<path d="M11853 6088 c2 -7 -6 -42 -19 -78 -13 -35 -21 -66 -20 -68 4 -4 42 93 52 133 4 16 2 25 -6 25 -6 0 -10 -6 -7 -12z"/>
<path d="M7580 6006 c0 -14 5 -26 10 -26 6 0 10 9 10 19 0 11 -4 23 -10 26 -6 4 -10 -5 -10 -19z"/>
<path d="M7590 5958 c0 -16 47 -118 54 -118 3 0 -6 23 -19 51 -13 28 -21 58 -18 65 3 8 0 14 -6 14 -6 0 -11 -6 -11 -12z"/>
<path d="M11799 5923 c-2 -26 -10 -48 -33 -99 -14 -31 -26 -61 -25 -68 0 -6 9 9 21 34 41 92 57 140 48 140 -6 0 -10 -3 -11 -7z"/>
<path d="M5700 5870 c0 -19 3 -21 12 -12 9 9 9 15 0 24 -9 9 -12 7 -12 -12z"/>
<path d="M346 5772 c-23 -45 -96 -226 -96 -237 0 -3 4 -5 8 -5 5 0 9 6 9 13 0 16 66 184 94 240 11 20 17 37 14 37 -2 0 -16 -22 -29 -48z"/>
<path d="M5703 5785 c0 -22 2 -30 4 -17 2 12 2 30 0 40 -3 9 -5 -1 -4 -23z"/>
<path d="M7715 5740 c21 -22 41 -40 44 -40 3 0 -13 18 -34 40 -21 22 -41 40 -44 40 -3 0 13 -18 34 -40z"/>
<path d="M7779 5687 c15 -19 119 -72 126 -65 3 3 -14 13 -37 23 -24 11 -56 28 -73 39 -23 16 -27 16 -16 3z"/>
<path d="M5703 5605 c0 -22 2 -30 4 -17 2 12 2 30 0 40 -3 9 -5 -1 -4 -23z"/>
<path d="M11645 5569 c-9 -17 -15 -33 -13 -35 3 -2 12 12 21 31 21 43 13 47 -8 4z"/>
<path d="M8085 5570 c11 -5 29 -8 40 -8 16 0 15 2 -5 8 -34 11 -60 11 -35 0z"/>
<path d="M8261 5541 c-8 -5 25 -13 90 -20 251 -27 353 -54 409 -108 35 -33 35 -34 35 -122 0 -81 -3 -91 -28 -125 -16 -20 -39 -44 -53 -52 -60 -40 -239 -55 -347 -30 -110 26 -175 91 -197 199 l-11 57 -263 0 -262 0 5 -37 6 -38 3 33 3 32 248 0 247 0 2 -32 c4 -47 44 -128 81 -165 18 -17 61 -42 95 -55 52 -20 79 -23 181 -23 113 1 124 3 186 32 90 42 120 90 125 201 3 67 0 82 -20 112 -35 54 -111 87 -252 110 -67 11 -147 22 -178 24 -32 2 -60 7 -63 10 -9 8 -26 7 -42 -3z"/>
<path d="M5700 5519 c0 -11 5 -17 10 -14 6 3 10 13 10 21 0 8 -4 14 -10 14 -5 0 -10 -9 -10 -21z"/>
<path d="M233 5473 c-23 -89 -23 -98 -5 -48 30 78 34 95 25 95 -5 0 -14 -21 -20 -47z"/>
<path d="M11596 5467 c-31 -57 -68 -137 -61 -137 5 0 96 183 92 186 -1 1 -15 -21 -31 -49z"/>
<path d="M6200 5482 c0 -33 30 -132 54 -180 55 -108 167 -184 298 -202 147 -20 289 19 363 101 43 48 90 146 108 227 l14 62 -131 -2 -131 -2 124 -3 c111 -3 123 -5 118 -21 -60 -193 -124 -280 -237 -323 -68 -26 -234 -27 -305 -1 -126 44 -220 157 -244 291 -7 39 -17 71 -22 71 -5 0 -9 -8 -9 -18z"/>
<path d="M7511 5448 c0 -9 -4 -25 -7 -35 -5 -17 -5 -17 6 0 6 10 9 25 7 35 -4 15 -5 15 -6 0z"/>
<path d="M5721 5435 c-1 -5 10 -45 24 -88 26 -80 76 -181 125 -252 35 -50 150 -172 150 -159 0 5 -18 28 -41 49 -39 38 -129 150 -129 160 0 3 -15 31 -32 62 -18 32 -33 62 -34 68 -5 21 -63 170 -63 160z"/>
<path d="M7457 5270 c-14 -33 -22 -60 -19 -60 8 0 55 111 49 116 -2 2 -15 -23 -30 -56z"/>
<path d="M180 5263 c0 -16 -2 -46 -5 -68 -3 -26 0 -19 10 20 17 73 17 75 5 75 -5 0 -10 -12 -10 -27z"/>
<path d="M5553 5254 c-3 -8 -1 -20 6 -27 8 -8 11 -4 11 16 0 30 -7 35 -17 11z"/>
<path d="M7640 5245 c0 -8 5 -15 10 -15 6 0 10 7 10 15 0 8 -4 15 -10 15 -5 0 -10 -7 -10 -15z"/>
<path d="M11474 5218 c-9 -18 -24 -43 -32 -55 -8 -13 -10 -23 -5 -23 5 0 21 25 36 55 28 58 29 78 1 23z"/>
<path d="M5549 5205 c-3 -5 -6 -22 -7 -38 -1 -15 -9 -44 -17 -64 -8 -20 -13 -38 -11 -40 7 -8 47 110 44 131 -2 12 -6 17 -9 11z"/>
<path d="M7391 5132 c-21 -37 -48 -76 -60 -86 -12 -11 -21 -23 -21 -27 0 -12 -93 -97 -159 -145 -67 -48 -119 -77 -205 -110 -34 -13 -55 -23 -48 -24 7 0 50 15 96 34 140 56 268 156 350 271 49 69 101 155 92 155 -3 0 -23 -30 -45 -68z"/>
<path d="M7666 5160 c14 -52 61 -133 109 -188 81 -95 167 -148 320 -201 93 -33 120 -38 110 -21 -4 6 -10 8 -15 5 -12 -8 -187 58 -252 94 -87 49 -193 162 -240 256 -21 44 -36 69 -32 55z"/>
<path d="M162 5120 c0 -19 2 -27 5 -17 2 9 2 25 0 35 -3 9 -5 1 -5 -18z"/>
<path d="M9295 5093 c-9 -47 -38 -106 -83 -163 l-34 -45 41 45 c42 46 101 153 101 183 0 32 -18 17 -25 -20z"/>
<path d="M11404 5081 c-14 -27 -26 -52 -26 -55 1 -3 -14 -33 -33 -67 -19 -33 -35 -63 -35 -65 0 -4 -266 -545 -524 -1064 -83 -168 -151 -307 -151 -310 -1 -3 -13 -29 -28 -57 -15 -29 -26 -54 -25 -55 2 -2 -7 -19 -19 -38 -31 -50 -221 -436 -225 -457 -1 -5 -15 -30 -31 -58 -16 -27 -30 -54 -31 -60 -1 -5 -15 -35 -32 -65 -16 -30 -31 -59 -33 -65 -2 -5 -44 -90 -92 -187 -48 -98 -86 -178 -84 -178 3 0 -8 -21 -23 -48 -15 -26 -46 -85 -69 -132 -23 -47 -80 -163 -126 -257 -47 -95 -83 -173 -81 -173 2 0 -10 -24 -27 -53 -18 -28 -32 -56 -33 -62 -1 -5 -14 -34 -29 -62 -15 -29 -26 -54 -25 -55 1 -2 -11 -25 -26 -51 -16 -26 -26 -50 -24 -52 6 -6 35 53 813 1630 286 580 734 1490 925 1880 68 138 125 253 127 258 2 4 2 7 -1 7 -3 0 -17 -22 -32 -49z"/>
<path d="M152 5020 c0 -19 2 -27 5 -17 2 9 2 25 0 35 -3 9 -5 1 -5 -18z"/>
<path d="M3222 4968 c1 -46 2 -48 5 -14 l4 38 69 -68 c93 -93 128 -120 194 -149 85 -38 81 -30 -12 21 -85 47 -199 144 -229 195 -25 42 -33 36 -31 -23z"/>
<path d="M4306 4980 c-11 -22 -34 -58 -53 -79 -18 -22 -33 -43 -33 -47 0 -10 79 78 80 89 0 4 7 19 16 33 l17 25 30 -28 c29 -28 26 -12 -6 30 -21 25 -30 21 -51 -23z"/>
<path d="M5452 4957 c-17 -23 -51 -62 -76 -85 -51 -47 -199 -124 -222 -115 -8 3 -14 0 -14 -6 0 -6 -6 -8 -14 -5 -8 3 -17 0 -22 -7 -19 -31 168 40 236 90 41 30 101 88 115 112 6 9 16 26 23 38 23 38 4 22 -26 -22z"/>
<path d="M6055 4905 c46 -38 155 -101 215 -124 78 -30 73 -18 -7 14 -37 14 -79 35 -94 46 -15 10 -31 19 -36 19 -4 0 -28 16 -52 35 -50 40 -72 48 -26 10z"/>
<path d="M4490 4852 c43 -39 158 -107 167 -99 2 2 -24 18 -57 36 -32 18 -65 37 -72 44 -7 7 -29 23 -48 36 -29 19 -28 16 10 -17z"/>
<path d="M9093 4839 c-35 -22 -46 -37 -15 -20 22 13 58 40 52 41 -3 0 -20 -10 -37 -21z"/>
<path d="M4080 4776 c-25 -13 -48 -22 -51 -21 -3 2 -25 -2 -50 -10 l-44 -14 35 0 c32 -1 160 50 160 64 0 7 1 7 -50 -19z"/>
<path d="M8220 4740 c0 -5 9 -10 21 -10 11 0 17 5 14 10 -3 6 -13 10 -21 10 -8 0 -14 -4 -14 -10z"/>
<path d="M8805 4740 c-3 -5 3 -10 15 -10 12 0 18 5 15 10 -3 6 -10 10 -15 10 -5 0 -12 -4 -15 -10z"/>
<path d="M5003 4723 c9 -2 25 -2 35 0 9 3 1 5 -18 5 -19 0 -27 -2 -17 -5z"/>
<path d="M6503 4723 c9 -2 25 -2 35 0 9 3 1 5 -18 5 -19 0 -27 -2 -17 -5z"/>
<path d="M6753 4723 c9 -2 25 -2 35 0 9 3 1 5 -18 5 -19 0 -27 -2 -17 -5z"/>
<path d="M8338 4723 c12 -2 32 -2 45 0 12 2 2 4 -23 4 -25 0 -35 -2 -22 -4z"/>
<path d="M8658 4723 c12 -2 32 -2 45 0 12 2 2 4 -23 4 -25 0 -35 -2 -22 -4z"/>
<path d="M153 4665 c0 -27 2 -38 4 -22 2 15 2 37 0 50 -2 12 -4 0 -4 -28z"/>
<path d="M162 4580 c0 -19 2 -27 5 -17 2 9 2 25 0 35 -3 9 -5 1 -5 -18z"/>
<path d="M180 4447 c0 -20 4 -37 10 -37 5 0 7 14 3 33 -8 45 -13 47 -13 4z"/>
<path d="M201 4340 c0 -8 4 -24 9 -35 5 -13 9 -14 9 -5 0 8 -4 24 -9 35 -5 13 -9 14 -9 5z"/>
<path d="M225 4260 c3 -14 8 -40 12 -57 3 -18 10 -33 15 -33 10 0 5 20 -19 80 -7 19 -11 24 -8 10z"/>
<path d="M250 4156 c0 -18 84 -215 134 -317 64 -127 174 -304 184 -294 3 3 -8 22 -25 43 -49 61 -213 363 -213 392 0 4 -14 39 -31 77 -17 37 -31 76 -32 86 -1 14 -17 26 -17 13z"/>
<path d="M9525 3584 c-9 -56 -10 -60 -45 -158 -87 -246 -263 -469 -491 -621 -114 -76 -176 -105 -334 -157 -66 -21 -104 -36 -85 -32 19 3 48 8 63 10 39 5 149 48 237 92 220 109 397 274 525 487 34 57 105 209 105 225 0 6 9 40 21 75 11 35 18 69 15 74 -3 5 0 11 6 14 10 3 10 7 1 17 -9 10 -13 4 -18 -26z"/>
<path d="M2570 3499 c0 -53 99 -264 176 -374 189 -270 456 -445 788 -518 l101 -22 2335 -3 c1284 -2 2373 0 2420 5 47 4 -1017 10 -2365 13 l-2450 5 -108 33 c-184 57 -291 108 -427 206 -115 83 -265 248 -324 356 -52 95 -100 201 -117 258 -21 64 -29 77 -29 41z"/>
<path d="M740 3325 c19 -19 36 -35 39 -35 3 0 -10 16 -29 35 -19 19 -36 35 -39 35 -3 0 10 -16 29 -35z"/>
<path d="M930 3145 c0 -17 307 -235 331 -235 7 0 -16 18 -50 40 -34 22 -64 40 -66 40 -3 0 -13 6 -22 14 -46 37 -193 144 -193 141z"/>
<path d="M2120 2486 c0 -6 32 -23 215 -113 72 -36 126 -60 120 -55 -5 6 -62 36 -125 67 -63 32 -136 69 -162 82 -27 13 -48 22 -48 19z"/>
<path d="M9439 2423 c-18 -21 -25 -30 -13 -20 11 9 28 17 38 17 9 0 14 5 11 10 -3 6 -1 10 4 10 6 0 11 5 11 10 0 19 -16 10 -51 -27z"/>
<path d="M2470 2312 c1 -8 45 -31 128 -68 84 -38 60 -19 -38 30 -49 25 -90 42 -90 38z"/>
<path d="M2660 2215 c0 -2 114 -60 253 -128 1204 -594 2187 -1078 2627 -1294 140 -69 273 -134 295 -146 22 -11 47 -24 55 -28 8 -5 141 -70 295 -145 154 -75 294 -143 310 -151 17 -9 26 -11 20 -5 -5 6 -64 37 -130 70 -66 32 -259 128 -430 213 -170 85 -312 154 -315 154 -3 0 -28 13 -57 29 -28 16 -55 28 -59 26 -4 -1 -10 2 -13 7 -5 7 -97 55 -111 58 -3 0 -87 42 -187 92 -101 51 -183 89 -183 85 0 -4 -4 -2 -8 3 -9 12 -98 58 -108 55 -4 -1 -10 2 -13 7 -3 5 -49 29 -101 55 -154 75 -1205 592 -1772 872 -309 152 -368 180 -368 171z"/>
<path d="M8513 2033 c9 -2 25 -2 35 0 9 3 1 5 -18 5 -19 0 -27 -2 -17 -5z"/>
<path d="M9257 2005 c-9 -19 -15 -35 -12 -35 7 0 37 61 33 66 -3 2 -12 -12 -21 -31z"/>
<path d="M4336 2021 c5 -5 16 -10 24 -11 8 -1 375 -1 815 1 l800 3 -480 7 c-757 10 -1170 10 -1159 0z"/>
<path d="M4460 1965 c0 -7 61 -37 66 -33 2 3 -12 12 -31 21 -19 9 -35 15 -35 12z"/>
<path d="M9197 1885 c-15 -30 -25 -55 -22 -55 7 0 57 101 53 106 -2 2 -16 -21 -31 -51z"/>
<path d="M4580 1905 c0 -7 61 -37 66 -33 2 3 -12 12 -31 21 -19 9 -35 15 -35 12z"/>
<path d="M4661 1866 c11 -12 239 -125 239 -118 0 4 -51 32 -113 62 -124 61 -135 66 -126 56z"/>
<path d="M9072 1640 c-50 -99 -88 -180 -84 -180 10 0 134 240 124 240 -4 0 -2 4 3 8 15 11 66 112 57 112 -4 0 -49 -81 -100 -180z"/>
<path d="M5050 1676 c0 -2 20 -16 45 -29 25 -14 45 -22 45 -18 0 4 -20 17 -45 29 -25 12 -45 20 -45 18z"/>
<path d="M5190 1606 c0 -5 68 -43 80 -45 3 0 58 -28 123 -61 65 -33 116 -56 113 -52 -3 5 -67 40 -143 77 -76 37 -146 72 -155 77 -10 5 -18 6 -18 4z"/>
<path d="M8940 1397 c-107 -161 -239 -304 -381 -412 -54 -41 -102 -75 -106 -75 -3 0 -14 -6 -22 -14 -25 -22 -159 -90 -251 -129 -103 -43 -282 -97 -321 -97 -15 0 -31 -5 -34 -11 -9 -13 46 -4 130 22 33 10 67 19 77 19 21 0 217 80 288 117 126 66 264 166 372 270 62 59 119 118 126 130 7 13 16 23 21 23 4 0 40 47 80 105 39 58 68 105 64 105 -5 0 -24 -24 -43 -53z"/>
<path d="M5540 1436 c0 -3 14 -12 30 -21 17 -9 30 -13 30 -11 0 3 -13 12 -30 21 -16 9 -30 13 -30 11z"/>
<path d="M5660 1376 c0 -2 20 -16 45 -30 25 -13 43 -21 40 -15 -7 10 -85 52 -85 45z"/>
<path d="M5785 1313 c20 -19 105 -64 105 -56 0 5 -26 21 -57 37 -32 15 -53 24 -48 19z"/>
<path d="M5900 1256 c0 -6 56 -36 113 -59 62 -26 42 -9 -30 25 -38 18 -71 34 -75 36 -5 2 -8 1 -8 -2z"/>
<path d="M6060 1176 c0 -3 14 -12 30 -21 17 -9 30 -13 30 -11 0 3 -13 12 -30 21 -16 9 -30 13 -30 11z"/>
<path d="M9455 1145 c-8 -14 -22 -37 -31 -51 -9 -15 -11 -24 -6 -20 6 3 22 26 35 51 27 47 28 63 2 20z"/>
<path d="M6130 1142 c0 -4 14 -13 30 -19 17 -6 30 -10 30 -7 0 2 -13 10 -30 19 -16 9 -30 12 -30 7z"/>
<path d="M6415 1003 c20 -19 85 -54 85 -46 0 4 -22 19 -48 32 -26 12 -42 19 -37 14z"/>
<path d="M9338 971 c-51 -72 -160 -196 -262 -296 -58 -57 -75 -78 -41 -48 96 82 245 243 313 338 4 6 13 18 21 28 7 9 10 17 5 17 -5 0 -21 -18 -36 -39z"/>
<path d="M6530 945 c0 -5 70 -42 108 -56 14 -6 24 -7 20 -4 -9 10 -128 65 -128 60z"/>
<path d="M6670 875 c0 -2 54 -31 120 -65 66 -33 120 -58 120 -55 0 2 25 -7 55 -21 63 -27 65 -28 65 -14 0 6 -7 10 -16 10 -15 0 -64 21 -266 114 -43 19 -78 33 -78 31z"/>
<path d="M7040 711 c0 -6 6 -11 13 -12 17 -1 32 -4 106 -23 35 -10 65 -15 67 -13 2 2 -31 13 -73 25 -43 11 -86 24 -95 27 -11 4 -18 3 -18 -4z"/>
<path d="M7290 650 c0 -5 6 -10 14 -10 8 0 18 5 21 10 3 6 -3 10 -14 10 -12 0 -21 -4 -21 -10z"/>
<path d="M7768 648 c17 -8 26 -8 34 0 9 9 4 12 -22 11 -33 0 -34 -1 -12 -11z"/>
<path d="M7695 639 c18 -5 33 -5 39 1 7 7 -4 10 -29 9 -40 -1 -40 -1 -10 -10z"/>
<path d="M7493 633 c32 -2 81 -2 110 0 29 2 3 3 -58 3 -60 0 -84 -1 -52 -3z"/>
<path d="M8903 532 c-34 -26 -70 -56 -80 -66 -10 -10 5 -2 32 18 28 20 65 46 83 57 17 12 32 25 32 30 0 12 4 14 -67 -39z"/>
<path d="M8759 431 c-35 -28 -124 -80 -201 -118 -38 -18 -68 -35 -68 -37 0 -18 270 131 309 170 13 13 -20 1 -40 -15z"/>
<path d="M8443 263 c-7 -2 -13 -8 -13 -13 0 -10 38 -1 46 11 6 10 -13 11 -33 2z"/>
<path d="M6708 225 c30 -14 57 -25 60 -25 13 1 -83 49 -98 49 -8 1 9 -10 38 -24z"/>
<path d="M8330 211 c-8 -6 -18 -7 -22 -5 -4 3 -8 0 -8 -5 0 -6 3 -11 8 -11 12 1 58 29 47 29 -5 1 -17 -3 -25 -8z"/>
<path d="M6780 201 c0 -5 21 -15 48 -22 77 -22 80 -21 18 6 -67 28 -66 28 -66 16z"/>
<path d="M8175 159 c-27 -10 -37 -17 -21 -14 31 7 97 33 81 33 -5 0 -32 -8 -60 -19z"/>
<path d="M8050 130 c-24 -8 -23 -8 8 -9 17 -1 32 4 32 9 0 11 -5 11 -40 0z"/>
<path d="M7090 110 c14 -4 34 -8 45 -8 16 0 15 2 -5 8 -14 4 -34 8 -45 8 -16 0 -15 -2 5 -8z"/>
<path d="M7910 99 c-19 -4 -42 -6 -52 -3 -9 3 -19 0 -23 -6 -4 -6 5 -10 22 -9 34 1 136 27 108 27 -11 0 -36 -4 -55 -9z"/>
<path d="M7220 90 c-12 -8 -9 -10 13 -10 16 0 26 4 22 10 -8 12 -16 12 -35 0z"/>
<path d="M7276 81 c-3 -4 22 -11 56 -15 86 -9 134 -8 123 3 -13 11 -173 22 -179 12z"/>
<path d="M7760 80 c-11 -7 -4 -10 25 -10 29 0 36 3 25 10 -8 5 -19 10 -25 10 -5 0 -17 -5 -25 -10z"/>
</g>
<g id="layer103" fill="#8e8d8d" stroke="none">
<path d="M4493 11453 c37 -2 96 -2 130 0 34 2 4 3 -68 3 -71 0 -99 -1 -62 -3z"/>
<path d="M5620 11185 c0 -7 81 -47 86 -43 2 3 -17 14 -41 26 -25 12 -45 20 -45 17z"/>
<path d="M5990 11007 c0 -7 72 -48 76 -44 2 2 -14 14 -36 26 -22 12 -40 20 -40 18z"/>
<path d="M6110 10946 c0 -3 14 -12 30 -21 17 -9 30 -13 30 -11 0 3 -13 12 -30 21 -16 9 -30 13 -30 11z"/>
<path d="M4310 10874 c-118 -16 -331 -75 -402 -110 -26 -13 -52 -24 -58 -24 -9 0 -122 -60 -209 -111 -161 -95 -417 -350 -495 -492 -6 -12 -27 -47 -46 -77 -20 -30 -49 -84 -67 -120 -136 -282 -326 -669 -335 -685 -24 -41 -88 -173 -88 -179 0 -4 21 10 46 31 90 75 108 94 52 53 -32 -22 -58 -38 -58 -35 0 26 439 900 506 1008 64 103 239 290 369 395 197 159 454 274 725 324 90 17 154 21 295 21 196 0 324 -18 479 -68 43 -14 82 -25 87 -25 11 0 335 -157 990 -479 135 -67 249 -121 252 -121 4 0 29 -14 57 -31 28 -17 53 -29 55 -27 5 5 -102 68 -115 68 -5 0 -32 14 -60 30 -28 17 -54 30 -57 30 -3 0 -232 112 -507 249 -276 136 -512 252 -526 256 -14 4 -41 16 -61 26 -21 10 -50 21 -66 23 -15 3 -55 15 -88 26 -33 12 -94 25 -135 31 -41 6 -104 14 -140 19 -93 13 -278 10 -400 -6z"/>
<path d="M6230 10885 c0 -2 18 -14 40 -25 22 -11 40 -18 40 -15 0 2 -18 14 -40 25 -22 11 -40 18 -40 15z"/>
<path d="M6580 10716 c0 -6 92 -57 97 -53 2 2 -19 16 -47 31 -27 15 -50 25 -50 22z"/>
<path d="M6720 10647 c0 -7 72 -48 76 -44 2 2 -14 14 -36 26 -22 12 -40 20 -40 18z"/>
<path d="M6840 10585 c0 -2 18 -14 40 -25 22 -11 40 -18 40 -15 0 2 -18 14 -40 25 -22 11 -40 18 -40 15z"/>
<path d="M7005 10501 c6 -5 28 -17 50 -27 52 -21 38 -7 -17 18 -24 11 -38 15 -33 9z"/>
<path d="M7330 10347 c0 -7 72 -48 76 -44 2 2 -14 14 -36 26 -22 12 -40 20 -40 18z"/>
<path d="M7730 10145 c0 -7 61 -37 66 -33 2 3 -12 12 -31 21 -19 9 -35 15 -35 12z"/>
<path d="M6484 10121 c4 -6 31 -23 59 -37 62 -31 52 -19 -17 21 -27 15 -45 22 -42 16z"/>
<path d="M6605 10060 c7 -11 227 -121 232 -116 2 2 -51 30 -117 64 -67 34 -118 57 -115 52z"/>
<path d="M7977 10020 c29 -17 56 -30 60 -30 12 0 -90 60 -102 60 -5 0 13 -14 42 -30z"/>
<path d="M6898 9909 c30 -17 56 -29 58 -26 5 4 -89 57 -102 57 -5 0 15 -14 44 -31z"/>
<path d="M8220 9906 c0 -3 14 -12 30 -21 17 -9 30 -13 30 -11 0 3 -13 12 -30 21 -16 9 -30 13 -30 11z"/>
<path d="M6970 9882 c0 -8 101 -65 106 -60 2 2 -21 18 -51 36 -30 17 -55 28 -55 24z"/>
<path d="M8340 9845 c0 -7 61 -37 66 -33 2 3 -12 12 -31 21 -19 9 -35 15 -35 12z"/>
<path d="M7090 9823 c0 -5 26 -21 58 -37 65 -32 60 -22 -10 18 -27 15 -48 23 -48 19z"/>
<path d="M7210 9761 c0 -3 109 -60 243 -126 l242 -120 -1655 -5 -1655 -5 1680 -2 c924 -1 1676 1 1670 3 -5 2 -126 62 -267 133 -142 71 -258 126 -258 122z"/>
<path d="M8587 9720 c29 -17 56 -30 60 -30 12 0 -90 60 -102 60 -5 0 13 -14 42 -30z"/>
<path d="M8950 9546 c0 -3 14 -12 30 -21 17 -9 30 -13 30 -11 0 3 -13 12 -30 21 -16 9 -30 13 -30 11z"/>
<path d="M3898 9503 c23 -2 59 -2 80 0 20 2 1 4 -43 4 -44 0 -61 -2 -37 -4z"/>
<path d="M4073 9503 c20 -2 54 -2 75 0 20 2 3 4 -38 4 -41 0 -58 -2 -37 -4z"/>
<path d="M4258 9503 c17 -2 47 -2 65 0 17 2 3 4 -33 4 -36 0 -50 -2 -32 -4z"/>
<path d="M3475 9485 c-89 -19 -148 -36 -143 -40 2 -3 22 1 44 7 21 6 84 19 139 29 61 10 84 17 60 17 -22 0 -67 -5 -100 -13z"/>
<path d="M3090 9375 c-14 -8 -20 -14 -15 -14 6 0 21 6 35 14 14 8 21 14 15 14 -5 0 -21 -6 -35 -14z"/>
<path d="M3015 9339 c-22 -10 -34 -19 -27 -19 15 0 72 28 72 35 0 6 3 7 -45 -16z"/>
<path d="M2902 9285 c-74 -41 -132 -80 -132 -88 0 -5 19 5 43 21 23 16 63 41 90 56 26 15 47 29 47 31 0 6 1 7 -48 -20z"/>
<path d="M9680 9185 c0 -2 18 -14 40 -25 22 -11 40 -18 40 -15 0 2 -18 14 -40 25 -22 11 -40 18 -40 15z"/>
<path d="M3655 8923 l-60 -13 94 5 c52 3 1139 6 2415 7 1277 1 2265 4 2196 5 -69 2 -1128 4 -2355 5 -1729 2 -2243 0 -2290 -9z"/>
<path d="M8448 8913 c12 -2 30 -2 40 0 9 3 -1 5 -23 4 -22 0 -30 -2 -17 -4z"/>
<path d="M8540 8908 c176 -55 280 -93 347 -128 43 -22 67 -31 53 -20 -58 46 -288 135 -400 153 l-35 6 35 -11z"/>
<path d="M3485 8900 c-13 -5 -14 -9 -5 -9 8 0 24 4 35 9 13 5 14 9 5 9 -8 0 -24 -4 -35 -9z"/>
<path d="M10290 8886 c0 -3 14 -12 30 -21 17 -9 30 -13 30 -11 0 3 -13 12 -30 21 -16 9 -30 13 -30 11z"/>
<path d="M3283 8830 c-35 -16 -63 -31 -63 -34 0 -6 111 44 125 55 15 15 3 11 -62 -21z"/>
<path d="M3145 8762 c-209 -128 -342 -270 -492 -524 -2 -5 -1 -8 4 -8 4 0 23 28 42 63 79 144 250 326 399 424 51 34 98 63 105 66 6 2 10 7 7 10 -3 3 -32 -11 -65 -31z"/>
<path d="M8975 8733 c6 -5 28 -22 50 -38 33 -24 36 -25 20 -6 -11 13 -33 30 -50 38 -16 8 -25 11 -20 6z"/>
<path d="M9201 8543 c46 -49 110 -126 142 -172 63 -94 78 -104 20 -13 -53 82 -221 272 -240 272 -3 0 32 -39 78 -87z"/>
<path d="M9982 8389 c33 -84 62 -148 65 -145 2 2 -7 32 -21 67 -31 74 -30 72 -8 60 9 -5 90 -46 179 -90 89 -44 171 -85 182 -90 12 -6 29 -15 39 -20 114 -56 269 -152 318 -196 6 -5 37 -32 69 -60 56 -48 204 -215 253 -287 247 -352 345 -772 282 -1200 -10 -73 -31 -166 -45 -207 -14 -41 -25 -80 -25 -87 0 -13 -51 -120 -247 -524 -367 -753 -461 -946 -599 -1225 -68 -137 -117 -241 -108 -230 8 11 79 148 156 305 77 157 279 565 449 906 274 554 361 740 374 801 2 10 15 57 28 104 32 107 42 209 42 409 0 196 -10 291 -42 399 -14 47 -29 100 -33 116 -4 17 -19 62 -35 100 -125 316 -341 580 -632 774 -89 59 -196 116 -488 257 -77 37 -144 70 -149 72 -5 3 -7 -1 -4 -9z"/>
<path d="M1605 8340 c-9 -16 -13 -30 -11 -30 3 0 12 14 21 30 9 17 13 30 11 30 -3 0 -12 -13 -21 -30z"/>
<path d="M9402 8275 c7 -21 59 -115 63 -115 3 0 -6 21 -19 48 -25 47 -51 86 -44 67z"/>
<path d="M1535 8200 c-9 -16 -13 -30 -11 -30 3 0 12 14 21 30 9 17 13 30 11 30 -3 0 -12 -13 -21 -30z"/>
<path d="M2619 8153 c-11 -25 -18 -50 -17 -54 2 -5 13 16 25 46 26 67 20 73 -8 8z"/>
<path d="M10053 8190 c30 -98 47 -176 53 -230 22 -237 23 -243 19 -110 -4 122 -38 295 -66 339 -9 14 -10 14 -6 1z"/>
<path d="M1499 8123 c-22 -46 -22 -50 1 -15 13 18 20 35 18 37 -3 3 -11 -7 -19 -22z"/>
<path d="M9461 8150 c-1 -3 13 -39 30 -80 16 -41 27 -63 24 -48 -5 27 -53 138 -54 128z"/>
<path d="M2570 8004 c-11 -37 -23 -85 -25 -108 -3 -23 5 0 19 49 13 50 27 98 31 108 4 9 5 17 1 17 -3 0 -14 -30 -26 -66z"/>
<path d="M9537 7895 c4 -16 9 -966 13 -2110 l5 -2080 0 2080 c0 1621 -3 2087 -13 2110 l-12 30 7 -30z"/>
<path d="M2530 7828 c0 -19 2 -20 10 -8 13 19 13 30 0 30 -5 0 -10 -10 -10 -22z"/>
<path d="M2530 5930 c-6 -2271 -6 -2183 4 -2253 4 -32 8 -57 9 -55 1 1 0 937 -3 2078 l-5 2075 -5 -1845z"/>
<path d="M1305 7730 c-9 -16 -13 -30 -11 -30 3 0 12 14 21 30 9 17 13 30 11 30 -3 0 -12 -13 -21 -30z"/>
<path d="M1882 7601 c-44 -89 -77 -161 -73 -161 3 0 33 55 66 123 l60 122 6 -720 c3 -396 8 -1262 10 -1925 4 -1156 4 -1125 9 755 3 1078 4 1961 4 1963 -1 2 -38 -69 -82 -157z"/>
<path d="M1246 7610 c-15 -27 -25 -50 -22 -50 6 0 57 92 53 97 -2 2 -16 -19 -31 -47z"/>
<path d="M1187 7493 c-15 -29 -25 -53 -23 -53 7 0 57 91 54 98 -2 5 -15 -16 -31 -45z"/>
<path d="M1784 7398 c-9 -18 -24 -43 -32 -55 -8 -13 -10 -23 -5 -23 5 0 21 25 36 55 28 58 29 78 1 23z"/>
<path d="M1105 7330 c-9 -16 -13 -30 -11 -30 3 0 12 14 21 30 9 17 13 30 11 30 -3 0 -12 -13 -21 -30z"/>
<path d="M1713 7259 c-15 -29 -28 -55 -28 -58 -1 -3 -90 -186 -199 -406 -542 -1093 -644 -1302 -651 -1325 -4 -14 -18 -54 -32 -90 -37 -93 -82 -326 -89 -460 -10 -180 24 -419 84 -590 14 -41 27 -79 28 -85 2 -12 88 -188 112 -230 87 -152 152 -233 294 -370 143 -139 278 -231 473 -325 72 -34 146 -70 165 -80 130 -68 235 -118 238 -115 2 2 -3 14 -11 27 -7 12 -29 69 -47 125 -19 56 -36 101 -38 99 -2 -3 13 -53 32 -112 20 -58 35 -108 33 -110 -5 -6 -505 246 -544 274 -17 12 -34 22 -38 22 -19 0 -180 126 -268 209 -47 44 -165 187 -216 261 -110 161 -186 334 -242 555 -33 128 -33 133 -34 360 0 219 1 236 29 355 45 196 59 229 296 715 49 99 143 293 210 430 67 138 131 268 143 290 31 60 26 49 186 375 82 167 148 306 146 308 -1 2 -16 -20 -32 -49z"/>
<path d="M1005 7120 c-9 -16 -13 -30 -11 -30 3 0 12 14 21 30 9 17 13 30 11 30 -3 0 -12 -13 -21 -30z"/>
<path d="M940 6990 c-11 -22 -18 -40 -15 -40 2 0 14 18 25 40 11 22 18 40 15 40 -2 0 -14 -18 -25 -40z"/>
<path d="M902 6908 c-14 -18 -46 -85 -35 -73 14 15 55 85 50 85 -2 0 -9 -6 -15 -12z"/>
<path d="M2732 6478 c2 -146 6 -129 10 45 2 53 0 97 -4 97 -5 0 -7 -64 -6 -142z"/>
<path d="M3250 6026 c3 -327 9 -598 14 -603 5 -5 6 88 2 221 -3 126 -6 397 -6 603 0 205 -3 373 -7 373 -5 0 -6 -267 -3 -594z"/>
<path d="M3889 5980 c-6 -626 -7 -647 -27 -693 -12 -26 -19 -47 -16 -47 3 0 15 21 27 48 22 46 22 56 25 567 1 286 1 576 0 645 -2 69 -6 -165 -9 -520z"/>
<path d="M4410 6011 c3 -336 9 -613 14 -618 5 -5 6 15 2 47 -3 30 -6 308 -6 618 0 309 -3 562 -7 562 -5 0 -6 -274 -3 -609z"/>
<path d="M5052 6304 c-1 -176 -4 -458 -7 -625 -3 -219 -1 -285 6 -235 5 39 8 305 6 625 -1 336 -3 429 -5 235z"/>
<path d="M5561 6143 c1 -263 5 -491 9 -508 4 -16 8 198 9 478 1 332 -2 507 -9 507 -7 0 -10 -165 -9 -477z"/>
<path d="M705 6510 c-9 -16 -13 -30 -11 -30 3 0 12 14 21 30 9 17 13 30 11 30 -3 0 -12 -13 -21 -30z"/>
<path d="M8826 6473 c-4 -9 -2 -21 4 -27 7 -7 10 -2 10 17 0 31 -5 34 -14 10z"/>
<path d="M5994 6448 l-29 -33 33 29 c30 28 37 36 29 36 -2 0 -16 -15 -33 -32z"/>
<path d="M9326 6364 c-3 -43 -5 -136 -4 -208 1 -120 2 -114 9 74 4 113 6 206 5 208 -2 1 -6 -32 -10 -74z"/>
<path d="M640 6380 c-11 -22 -18 -40 -15 -40 2 0 14 18 25 40 11 22 18 40 15 40 -2 0 -14 -18 -25 -40z"/>
<path d="M2734 6125 c0 -115 2 -161 3 -102 2 59 2 154 0 210 -1 56 -3 8 -3 -108z"/>
<path d="M8293 6320 c-112 -23 -195 -103 -192 -187 1 -26 3 -30 6 -13 8 53 34 107 61 127 72 53 89 58 237 58 122 -1 146 -3 187 -22 62 -28 138 -100 168 -160 23 -44 25 -61 28 -212 l3 -164 -24 7 c-14 3 -33 8 -44 11 -10 3 -7 0 7 -6 52 -25 83 -39 87 -39 7 0 2 210 -7 275 -19 129 -93 241 -197 293 -73 38 -218 52 -320 32z"/>
<path d="M7390 6308 c0 -7 45 -77 57 -88 10 -9 -25 54 -41 75 -8 11 -16 17 -16 13z"/>
<path d="M6613 6273 c26 -2 67 -2 90 0 23 2 2 3 -48 3 -49 0 -68 -1 -42 -3z"/>
<path d="M6505 6260 c-25 -11 1 -11 35 0 20 6 21 8 5 8 -11 0 -29 -3 -40 -8z"/>
<path d="M6790 6255 c24 -8 46 -13 48 -11 5 5 -59 26 -77 25 -9 0 4 -7 29 -14z"/>
<path d="M6394 6218 c-63 -43 -103 -87 -136 -157 -41 -85 -33 -86 13 -1 22 41 48 83 57 94 25 27 100 77 130 86 22 7 23 8 6 9 -11 1 -43 -14 -70 -31z"/>
<path d="M7451 6195 c0 -5 8 -26 19 -45 11 -19 19 -30 19 -25 0 6 -8 26 -19 45 -11 19 -19 31 -19 25z"/>
<path d="M6955 6172 c6 -4 27 -26 48 -50 20 -23 37 -38 37 -32 0 14 -70 90 -84 90 -7 0 -7 -3 -1 -8z"/>
<path d="M8101 6039 c-2 -81 79 -164 190 -194 96 -27 200 -45 247 -44 37 1 28 4 -43 14 -260 37 -358 95 -385 228 l-8 42 -1 -46z"/>
<path d="M407 5905 c-9 -19 -15 -35 -12 -35 7 0 37 61 33 66 -3 2 -12 -12 -21 -31z"/>
<path d="M2733 5820 c0 -36 2 -50 4 -32 2 17 2 47 0 65 -2 17 -4 3 -4 -33z"/>
<path d="M6212 5848 l-2 -38 670 -2 c369 -2 670 0 670 5 0 4 -299 7 -664 7 l-665 0 -4 33 c-4 32 -4 32 -5 -5z"/>
<path d="M8655 5780 c11 -5 27 -9 35 -9 9 0 8 4 -5 9 -11 5 -27 9 -35 9 -9 0 -8 -4 5 -9z"/>
<path d="M2732 5710 c0 -19 2 -27 5 -17 2 9 2 25 0 35 -3 9 -5 1 -5 -18z"/>
<path d="M2734 5570 c0 -52 1 -74 3 -47 2 26 2 68 0 95 -2 26 -3 4 -3 -48z"/>
<path d="M7543 5615 c0 -22 2 -30 4 -17 2 12 2 30 0 40 -3 9 -5 -1 -4 -23z"/>
<path d="M5573 5490 c0 -41 2 -58 4 -37 2 20 2 54 0 75 -2 20 -4 3 -4 -38z"/>
<path d="M8595 5485 c50 -14 100 -28 111 -31 12 -3 37 -21 55 -40 27 -28 33 -44 40 -101 l8 -68 -3 74 c-4 73 -5 76 -42 105 -40 33 -146 72 -217 81 -24 3 -4 -5 48 -20z"/>
<path d="M6215 5440 c8 -72 67 -191 116 -235 95 -86 264 -126 399 -94 25 6 53 12 63 14 52 11 127 80 170 155 23 41 67 171 67 199 0 8 -37 10 -127 9 l-128 -2 124 -3 c111 -3 123 -5 118 -21 -60 -193 -124 -280 -237 -323 -68 -26 -234 -27 -305 -1 -122 43 -215 150 -241 279 -18 84 -27 95 -19 23z"/>
<path d="M2733 5340 c0 -36 2 -50 4 -32 2 17 2 47 0 65 -2 17 -4 3 -4 -33z"/>
<path d="M3274 5363 c43 -119 146 -218 237 -228 l44 -4 -47 13 c-96 28 -160 86 -208 189 -35 74 -47 87 -26 30z"/>
<path d="M4441 5345 c0 -5 6 -21 14 -35 8 -14 14 -20 14 -15 0 6 -6 21 -14 35 -8 14 -14 21 -14 15z"/>
<path d="M5010 5274 c-33 -63 -101 -121 -153 -130 -23 -4 -37 -9 -30 -11 22 -8 88 17 123 46 32 26 97 127 88 136 -2 2 -14 -16 -28 -41z"/>
<path d="M4488 5245 c6 -11 23 -31 39 -45 l28 -25 -30 35 c-47 55 -48 56 -37 35z"/>
<path d="M8171 5244 c-1 -26 47 -94 91 -127 42 -33 85 -49 93 -37 4 6 -2 10 -12 10 -50 0 -144 86 -163 148 -7 22 -8 23 -9 6z"/>
<path d="M8790 5218 c0 -25 -41 -82 -76 -105 -14 -9 -51 -22 -82 -28 -53 -12 -55 -13 -19 -14 22 -1 54 6 73 15 47 22 114 98 114 129 0 14 -2 25 -5 25 -3 0 -5 -10 -5 -22z"/>
<path d="M3787 5185 c-27 -25 -47 -45 -44 -45 8 0 82 62 90 76 12 21 6 17 -46 -31z"/>
<path d="M2733 5145 c0 -44 2 -61 4 -37 2 23 2 59 0 80 -2 20 -4 1 -4 -43z"/>
<path d="M4564 5172 c16 -27 68 -42 153 -46 48 -2 70 -2 48 0 -78 8 -159 26 -184 42 -14 10 -22 12 -17 4z"/>
<path d="M3708 5145 c-3 -3 -38 -9 -79 -15 l-74 -9 72 4 c40 2 81 8 90 14 10 6 13 11 7 11 -6 0 -13 -2 -16 -5z"/>
<path d="M9299 5075 c-9 -25 -13 -42 -8 -40 9 6 33 75 27 80 -2 2 -11 -16 -19 -40z"/>
<path d="M8458 5063 c23 -2 59 -2 80 0 20 2 1 4 -43 4 -44 0 -61 -2 -37 -4z"/>
<path d="M3221 4970 l2 -55 7 45 c4 25 4 49 -1 55 -5 5 -8 -13 -8 -45z"/>
<path d="M4326 5003 c-4 -9 -4 -14 0 -10 4 4 17 -1 28 -10 l21 -18 -20 25 c-11 14 -20 26 -21 28 -1 2 -5 -5 -8 -15z"/>
<path d="M2734 4910 c0 -58 1 -81 3 -52 2 28 2 76 0 105 -2 28 -3 5 -3 -53z"/>
<path d="M2730 4768 c0 -5 111 -7 248 -6 247 2 219 6 -86 10 -89 2 -162 0 -162 -4z"/>
<path d="M11225 4710 c-9 -16 -13 -30 -11 -30 3 0 12 14 21 30 9 17 13 30 11 30 -3 0 -12 -13 -21 -30z"/>
<path d="M3747 4713 c18 -2 50 -2 70 0 21 2 7 4 -32 4 -38 0 -55 -2 -38 -4z"/>
<path d="M6598 4713 c23 -2 59 -2 80 0 20 2 1 4 -43 4 -44 0 -61 -2 -37 -4z"/>
<path d="M8478 4713 c23 -2 59 -2 80 0 20 2 1 4 -43 4 -44 0 -61 -2 -37 -4z"/>
<path d="M10130 4135 c-3 -203 -5 -371 -4 -372 0 -2 17 29 37 67 20 39 33 70 29 70 -4 0 -16 -19 -27 -42 l-20 -42 -5 345 -5 344 -5 -370z"/>
<path d="M10276 4084 c-14 -26 -24 -49 -22 -51 2 -2 16 17 30 43 14 26 24 49 22 51 -2 2 -16 -17 -30 -43z"/>
<path d="M10925 4100 c-9 -16 -13 -30 -11 -30 3 0 12 14 21 30 9 17 13 30 11 30 -3 0 -12 -13 -21 -30z"/>
<path d="M10218 3968 c-15 -28 -26 -53 -24 -55 5 -6 57 89 54 98 -2 5 -15 -15 -30 -43z"/>
<path d="M1961 3650 c0 -25 6 -74 15 -110 8 -36 17 -84 21 -107 3 -24 9 -40 13 -38 5 3 2 33 -7 68 -8 34 -20 100 -28 147 -10 67 -13 75 -14 40z"/>
<path d="M10681 3604 c-12 -20 -21 -40 -19 -44 2 -4 13 12 26 36 27 53 22 58 -7 8z"/>
<path d="M9496 3474 c-9 -26 -14 -49 -12 -51 2 -2 11 17 20 43 9 26 14 49 12 51 -2 2 -11 -17 -20 -43z"/>
<path d="M10625 3490 c-9 -16 -13 -30 -11 -30 3 0 12 14 21 30 9 17 13 30 11 30 -3 0 -12 -13 -21 -30z"/>
<path d="M2601 3413 c6 -16 34 -75 63 -133 60 -121 146 -237 243 -330 l68 -65 -76 80 c-79 83 -150 175 -183 235 -46 84 -106 212 -106 226 0 7 -4 14 -10 14 -6 0 -6 -10 1 -27z"/>
<path d="M9445 3330 c-9 -16 -13 -30 -11 -30 3 0 12 14 21 30 9 17 13 30 11 30 -3 0 -12 -13 -21 -30z"/>
<path d="M9391 3233 c-2 -30 -123 -183 -223 -284 -68 -68 -127 -113 -238 -184 -41 -26 -67 -45 -58 -42 35 12 217 136 274 187 103 93 261 297 250 324 -3 7 -5 7 -5 -1z"/>
<path d="M10386 3003 c-15 -25 -25 -48 -23 -50 2 -2 16 19 31 47 15 27 25 50 22 50 -2 0 -16 -21 -30 -47z"/>
<path d="M10325 2880 c-9 -16 -13 -30 -11 -30 3 0 12 14 21 30 9 17 13 30 11 30 -3 0 -12 -13 -21 -30z"/>
<path d="M2995 2872 c11 -13 29 -28 40 -34 21 -11 18 -8 -30 32 -29 24 -29 24 -10 2z"/>
<path d="M3067 2819 c13 -16 147 -99 160 -99 4 0 -19 16 -52 36 -33 20 -73 46 -90 57 -17 12 -25 14 -18 6z"/>
<path d="M3290 2691 c52 -27 178 -66 187 -58 2 3 -25 12 -59 22 -35 9 -87 28 -117 41 -72 32 -78 29 -11 -5z"/>
<path d="M8800 2700 c-19 -11 -30 -19 -25 -19 6 0 26 8 45 19 19 11 31 19 25 19 -5 0 -26 -8 -45 -19z"/>
<path d="M8640 2645 c-19 -7 -28 -14 -20 -14 8 0 29 6 45 14 39 17 21 18 -25 0z"/>
<path d="M3505 2620 c11 -5 29 -8 40 -8 16 0 15 2 -5 8 -34 11 -60 11 -35 0z"/>
<path d="M4837 2593 c662 -2 1744 -2 2405 0 662 1 121 2 -1202 2 -1323 0 -1864 -1 -1203 -2z"/>
<path d="M10095 2410 c-9 -16 -13 -30 -11 -30 3 0 12 14 21 30 9 17 13 30 11 30 -3 0 -12 -13 -21 -30z"/>
<path d="M10025 2270 c-9 -16 -13 -30 -11 -30 3 0 12 14 21 30 9 17 13 30 11 30 -3 0 -12 -13 -21 -30z"/>
<path d="M4352 2015 c7 -7 1610 -7 1616 0 3 3 -361 5 -808 5 -447 0 -811 -2 -808 -5z"/>
<path d="M3221 1936 c10 -9 69 -36 69 -32 0 6 -55 36 -66 36 -4 0 -5 -2 -3 -4z"/>
<path d="M3630 1736 c0 -3 14 -12 30 -21 17 -9 30 -13 30 -11 0 3 -13 12 -30 21 -16 9 -30 13 -30 11z"/>
<path d="M9105 1710 c-9 -16 -13 -30 -11 -30 3 0 12 14 21 30 9 17 13 30 11 30 -3 0 -12 -13 -21 -30z"/>
<path d="M9072 1638 c-29 -50 -84 -164 -73 -153 12 12 102 185 97 185 -3 0 -13 -15 -24 -32z"/>
<path d="M3831 1636 c10 -9 69 -36 69 -32 0 6 -55 36 -66 36 -4 0 -5 -2 -3 -4z"/>
<path d="M4240 1435 c0 -5 180 -95 189 -95 10 0 -72 45 -133 73 -31 14 -56 24 -56 22z"/>
<path d="M4570 1276 c0 -3 14 -12 30 -21 17 -9 30 -13 30 -11 0 3 -13 12 -30 21 -16 9 -30 13 -30 11z"/>
<path d="M4850 1136 c0 -3 14 -12 30 -21 17 -9 30 -13 30 -11 0 3 -13 12 -30 21 -16 9 -30 13 -30 11z"/>
<path d="M4960 1079 c26 -17 90 -50 90 -45 0 5 -90 56 -99 56 -3 0 1 -5 9 -11z"/>
<path d="M5460 836 c0 -3 14 -12 30 -21 17 -9 30 -13 30 -11 0 3 -13 12 -30 21 -16 9 -30 13 -30 11z"/>
<path d="M6800 816 c0 -3 14 -12 30 -21 17 -9 30 -13 30 -11 0 3 -13 12 -30 21 -16 9 -30 13 -30 11z"/>
<path d="M9185 778 l-40 -43 43 40 c39 36 47 45 39 45 -2 0 -21 -19 -42 -42z"/>
<path d="M5570 779 c26 -17 70 -40 70 -35 0 5 -69 46 -78 46 -4 0 0 -5 8 -11z"/>
<path d="M8130 745 c-14 -8 -20 -14 -15 -14 6 0 21 6 35 14 14 8 21 14 15 14 -5 0 -21 -6 -35 -14z"/>
<path d="M7548 633 c12 -2 30 -2 40 0 9 3 -1 5 -23 4 -22 0 -30 -2 -17 -4z"/>
<path d="M6070 536 c0 -3 14 -12 30 -21 17 -9 30 -13 30 -11 0 3 -13 12 -30 21 -16 9 -30 13 -30 11z"/>
<path d="M7368 63 c12 -2 32 -2 45 0 12 2 2 4 -23 4 -25 0 -35 -2 -22 -4z"/>
</g>


</svg>